/* XPM */
static char *result[] = {
/* columns rows colors chars-per-pixel */
"90 90 136 2 ",
"   c black",
".  c #080B07",
"X  c #090C08",
"o  c #141D10",
"O  c #182313",
"+  c #1D2A17",
"@  c #0E1C2B",
"#  c #0D1F30",
"$  c #0D2133",
"%  c #0B263A",
"&  c #0B283C",
"*  c #0A2B43",
"=  c #0A2F49",
"-  c #0A304A",
";  c #0C3553",
":  c #0C3D5D",
">  c #123C5B",
",  c #0E3E60",
"<  c #0C4165",
"1  c #0D466B",
"2  c #0E496F",
"3  c #0D4970",
"4  c #104E76",
"5  c #114F78",
"6  c #12517B",
"7  c #1B537B",
"8  c #6DA558",
"9  c #6FA859",
"0  c #74AC5C",
"q  c #7AAF5F",
"w  c #77B05E",
"e  c #78B15F",
"r  c #7AAF60",
"t  c #7CB461",
"y  c #7FB863",
"u  c #7AB56E",
"i  c #7EB96B",
"p  c #71AA7B",
"a  c #75B475",
"s  c #79B673",
"d  c #7EB873",
"f  c #73B279",
"g  c #7CB77A",
"h  c #82BB65",
"j  c #80B96B",
"k  c #165681",
"l  c #1D5680",
"z  c #165885",
"x  c #185986",
"c  c #195C8A",
"v  c #1E608D",
"b  c #1D6393",
"n  c #1F6698",
"m  c #1F699A",
"M  c #21628F",
"N  c #256693",
"B  c #286A96",
"V  c #216C9E",
"C  c #2A6C98",
"Z  c #2D709B",
"A  c #226EA2",
"S  c #2471A5",
"D  c #2675AA",
"F  c #2D7BAF",
"G  c #3376A1",
"H  c #3578A4",
"J  c #397BA7",
"K  c #2779B0",
"L  c #297CB3",
"P  c #2B7FB8",
"I  c #3C80AA",
"U  c #2E83BD",
"Y  c #3A8BB3",
"T  c #3987BB",
"R  c #659C80",
"E  c #5CA28E",
"W  c #57A29F",
"Q  c #5AA49B",
"!  c #66AB8A",
"~  c #77B583",
"^  c #79B582",
"/  c #76B38C",
"(  c #67A595",
")  c #60A892",
"_  c #6AAC9F",
"`  c #71AF92",
"'  c #70AF9E",
"]  c #72B096",
"[  c #509FA8",
"{  c #599DAB",
"}  c #4185B1",
"|  c #4589B3",
" . c #468EBD",
".. c #4B8EB8",
"X. c #4699B5",
"o. c #499AB3",
"O. c #4D92BC",
"+. c #4498B9",
"@. c #4C9CBD",
"#. c #5F9EB5",
"$. c #5195BF",
"%. c #56A2A0",
"&. c #58A3A0",
"*. c #54A1AA",
"=. c #5AA4B4",
"-. c #6EAFA4",
";. c #65A5AA",
":. c #6BADAD",
">. c #70AFA1",
",. c #64A6B1",
"<. c #66A9B2",
"1. c #69ABB5",
"2. c #62A7BC",
"3. c #66A9BD",
"4. c #68ABB8",
"5. c #2F86C1",
"6. c #3086C1",
"7. c #318AC5",
"8. c #3D8DC2",
"9. c #348FCD",
"0. c #3992C7",
"q. c #3790CD",
"w. c #3A92CD",
"e. c #4692C4",
"r. c #4F9BC6",
"t. c #4597CE",
"y. c #4699CE",
"u. c #4A9ACD",
"i. c #559AC3",
"p. c #539ECE",
"a. c #5A9FC8",
"s. c #54A0C3",
"d. c #5CA4C2",
"f. c #56A0CE",
"g. c #5DA3CE",
"h. c #61A6CF",
/* pixels */
"h h h h h h h h h h h h h h h h h h h h h h h h h h h h h h h h h h h h g h.h.h.h.h.h.h.h.h.h.h.h.h.h.h.h.^ h h h h h h h h h h h h h h h h h h h h h h h h h h h h h h h h h h h h ",
"h h h h h h h h h h h h h h h h h h h h h h h h h h h h h h h h h i j h ~ h.g.h.h.g.h.h.h.g.g.h.h.g.g.h.h.~ j j h h h h h h h h h h h h h h h h h h h h h h h h h h h h h h h h h h ",
"h h h h h h h h h h h h h h h h h h h h h h h h h h h h h h h h h ' h.h.f.w.w.w.q.q.q.q.q.q.q.w.q.q.w.w.0.f.h.h.R h h h h h h h h h h h h h h h h h h h h h h h h h h h h h h h h h ",
"h h h h h h h h h h h h h h h h h h h h h h h h h h h h h h h y h >.h.h.f.9.9.9.9.9.9.9.9.9.9.9.q.9.9.9.9.g.h.h.R h h h h h h h h h h h h h h h h h h h h h h h h h h h h h h h h h ",
"h h h h h h h h h h h h h h h h h h h h h h h h h h h h h i X.0.9.r.h.h.r.v c c c c x c c c c c c m 7.9.9.9.q.q.p.h.h.1.j h h h h h h h h h h h h h h h h h h h h h h h h h h h h h ",
"h h h h h h h h h h h h h h h h h h h h h h h h h h h i i u +.q.q.r.h.h.O.c z z x x x x x x z c z b 5.7.9.9.7.9.r.h.h.4.j j j h h h h h h h h h h h h h h h h h h h h h h h h h h h ",
"h h h h h h h h h h h h h h h h h h h h h h h h h h a X.Y 0.f.g.g.} B B M c z x x x x x x x c z c c b b v b v v F w.w.y.3.4.4.d h h h h h h h h h h h h h h h h h h h h h h h h h h ",
"h h h h h h h h h h h h h h h h h h h h h h h h h h f 0.w.w.g.h.h.J x x z x x x x x x x x x z z z x x x x x x x D 9.9.t.h.h.h.g h h h h h h h h h h h h h h h h h h h h h h h h h h ",
"h h h h h h h h h h h h h h h h h h h h h h h h h h f 0.9.w.g.h.h.I c x x x x k 3 5 3 6 3 3 3 5 4 5 x c x x x x D 9.q.w.h.h.h.d h h h h h h h h h h h h h h h h h h h h h h h h h h ",
"h h h h h h h h h h h h h h h h h h h h h h h h h h f 8.9.w.p.h.h.I x x x c x x 3 3 3 3 3 3 3 3 2 3 k c x x x x D 9.0.w.h.h.h.g h h h h h h h h h h h h h h h h h h h h h h h h h h ",
"h h h h h h h h h h h h h h h h h h h h h h h ! X.+.@.p.f.p.H C C M x x k 3 3 3 3 3 3 3 3 3 3 3 2 3 3 3 3 x x x c n b S w.t.y.2.4.4.~ h h h h h h h h h h h h h h h h h h h h h h h ",
"h h h h h h h h h h h h h h h h h h h h h h h ) 9.9.w.g.h.h.B x x x x x x 3 3 2 3 3 2 3 3 3 3 3 3 3 3 2 3 k x x x x x n 9.q.0.f.h.h./ h h h h h h h h h h h h h h h h h h h h h h h ",
"h h h h h h h h h h h h h h h h h h h h h h h ) 9.9.w.h.h.h.N x x x x x k 2 3 3 3 3 2 3 3 3 b U P D 3 3 3 k x x x x x b 9.9.w.g.h.h./ h h h h h h h h h h h h h h h h h h h h h h h ",
"h h h h h h h h h h h h h h h h h h h h h h h ) 9.9.w.h.h.h.B x x x x x k 3 3 2 3 2 3 2 3 2 m 9.9.5.6 3 3 6 x x x x x n 7.9.9.g.h.h./ i h h h h h h h h h h h h h h h h h h h h h h ",
"h h h h h h h h h h h h h h h h h h h h %.o.X.r.f.f.r.G Z Z c x x x x x 6 3 3 3 3 3 3 A L L 5.9.9.7.P P P b x x x x x c n n V 8.t.t.d.,.,.( t h h h h h h h h h h h h h h h h h h h ",
"h h h h h h h h h h h h h h h h h h h h o.9.q.u.h.h.i.c x x x x x x x x k 3 3 3 2 3 2 K q.9.9.9.9.9.9.9.9.n x x x x x x x x c U 9.9.p.h.h.;.y h h h h h h h h h h h h h h h h h h h ",
"h h h h h h h h h h h h h h h h h h h h o.q.q.y.h.h.i.v x x x x c 6 5 5 3 3 3 5 S D D v 7 6 z b n A 9.9.9.U L L m c x x x x c 5.q.9.p.h.h.;.0 h h h h h h h h h h h h h h h h h h h ",
"h h h h h h h h h h h h h h h h h h h h o.q.9.y.h.h.i.b x x x x z 6 3 3 3 3 2 6 5.9.9.7 * - ; 1 3 z 7.9.9.9.9.9.D z x x x x c U q.9.p.h.h.1.h h h h h h h h h h h h h h h h h h h h ",
"h h h h h h h h h h h h h h h h h h h h X.q.9.y.h.h.i.v x x x x x 6 3 3 3 3 2 2 7 l l > * * = ; ; , b m m 5.9.9.D x x x x x c 5.9.9.p.h.h.:.h h h h h h h h h h h h h h h h h h h h ",
"h h h h h h h h h h h h h h h h h h h h o.9.9.u.h.h.i.v x x x x x 5 3 3 3 3 2 1 - * * * * * * * * - 1 2 3 U 9.9.D c x x x x c 5.9.9.p.h.h.:.h h h h h h h h h h h h h h h h h h h h ",
"h h h h h h h h h h h h h h h h h h h h o.9.9.y.h.h.i.v x x x x x 5 2 3 3 3 2 1 = * * * = * * * * - 1 3 3 U 9.9.U K D A c x c 5.9.9.p.h.h.:.h h h h h h h h h h h h h h h h h h h h ",
"h h h h h h h h h h h h h h h h h h h h o.9.q.y.h.h.i.v x x x x x 6 2 3 3 3 3 1 = * * * * * * * * - 1 3 3 P 9.9.9.9.q.U x x c U 9.9.p.h.h.1.h h h h h h h h h h h h h h h h h h h h ",
"h h h h h h h h h h h h h h h h h h h h =.u.u.e.I I J c x c S D D c 3 3 3 3 3 1 - * * * * * * * * - 1 3 3 b A A U 9.9.U c x c V S D 8.u.u.s.>.>.` h h h h h h h h h h h h h h h h h ",
"h h h h h h h h h h h h h h h h h h h h 1.h.h.| x x x x x c 5.9.9.V 3 2 3 3 3 1 = * * * * * * * * - 1 3 3 3 3 3 A 9.9.U c x x x x x L 9.9.u.h.h.#.h h h h h h h h h h h h h h h h h ",
"h h h h h h h h h h h h h h h h h E Q Q d.h.h.| c x x x x c 5.9.9.A 3 3 3 3 3 1 = * * * * * * * = - 1 3 3 3 3 3 A q.9.U x x x x x x L 9.q.t.h.h.#.h h h h h h h h h h h h h h h h h ",
"h h h h h h h h h h h h h h h h h Y 9.9.f.h.h.| x x x x x c 5.9.9.A 3 3 3 3 3 < = * * * * * * * = - 1 3 3 3 3 3 D 9.9.U x x x x x x K 9.9.t.h.h.#.h h h h h h h h h h h h h h h h h ",
"h h h h h h h h h h h h h h h h h Y 9.9.f.h.h.| x x c A D S D D D c 3 3 3 3 3 1 = * * & $ % & * * = 1 3 3 1 3 3 A 9.9.5.c x x x x x L 9.9.t.h.h.#.h h h h h h h h h h h h h h h h h ",
"h h h h h h h h h h h h h h h h h Y 9.9.f.h.h.| x c b 9.9.7.k 2 2 3 3 3 3 3 3 1 = = * # @ @ # = * = 1 3 3 3 3 3 A 9.9.5.x x x x x x L 9.9.t.h.h.#.h h h h h h h h h h h h h h h h h ",
"h h h h h h h h h h h h h h h h y Y 9.9.p.h.h.| x x b 9.9.9.z 2 3 3 3 3 1 : : : = * * # @ @ # * * = ; , , 1 3 1 b K D D c x x x x x L 9.q.t.h.h.#.h h h h h h h h h h h h h h h h h ",
"h h h h h h h h h h h h h h h h t Y 9.9.f.h.h.| x x b 7.9.9.x 3 3 3 3 3 < = * * * = * # @ @ # * * * * = = , 3 3 2 3 3 3 x x x x x x L 9.9.t.h.h.#.h h h h h h h h h h h h h h h h h ",
"h h h h h h h h h h h h h h h h e Y 9.9.f.h.h.| x x b 9.9.7.x 2 1 3 3 3 , * * * & % & @ @ @ # % % & * * * < 2 3 k c b c x x x x x x P 9.9.t.h.h.,.h h h h h h h h h h h h h h h h h ",
"h h h h h h h h h h h h h h h h y Y 9.9.f.h.h.| x x b 7.9.9.k 2 3 3 3 3 , * = & @ @ @ @ @ @ @ @ @ # & * * < 3 3 S 9.9.5.x x x x x x K 9.9.t.h.h.#.h h h h h h h h h h h h h h h h h ",
"h h h h h h h h h h h h h h h h j Y 9.9.f.h.h.| x x b 9.9.7.z 3 3 3 3 3 < * * & @ @ @ @ @ @ @ @ @ # * * * , 3 3 b P P K z z z z x x L 9.9.t.h.g.#.h h h h h h h h h h h h h h h h h ",
"h h h h h h h h h h h h h h h h h Y 9.9.f.h.h.| x x b 7.9.9.z 3 3 3 3 3 < = * * @ @ @ @ @ @ @ @ @ @ * * = , 3 3 3 3 3 4 z z c c x x L 9.9.t.h.h.#.j h h h h h h h h h h h h h h h h ",
"h h h h h h h h h h h h h h h h h Y 9.9.f.h.h.| x x b 9.9.9.k 3 3 3 3 3 , * * & @ @ @ @ @ @ o @ @ # * * = , 3 3 3 3 3 4 z x z x x x L 9.9.t.h.h.#.h h h h h h h h h h h h h h h h h ",
"h h h h h h h h h h h h h h h h h Y q.q.f.h.h.| x x b 7.9.9.x 3 3 3 3 1 < * * * @ @ @ @ @ @ @ @ @ @ & * = , 3 3 3 3 3 3 z x x x x x L 9.9.t.h.h.#.h h h h h h h h h h h h h h h h h ",
"h h h h h h h h h h h h h h h h h Y q.9.p.h.h.| x x b 7.9.9.k 3 3 3 3 3 < * * & @ @ @ @ @ @ @ @ @ @ & * * , 3 3 2 3 3 4 z x x x x x L 9.9.t.h.h.#.h h h h h h h h h h h h h h h h h ",
"h h h h h h h h h h h h h h h h h Y 9.q.p.h.h.| x x b 9.9.9.k 3 3 3 3 3 < = * * @ @ @ @ @ @ @ @ @ # * * = , 3 3 2 3 3 3 x x x x x x L 9.9.t.h.h.#.h h h h h h h h h h h h h h h h h ",
"h h h h h h h h h h h h h h h h j Y 9.9.g.h.h.| x x b 9.9.9.b 6 5 3 3 3 < * * & @ @ @ @ @ @ @ @ @ # * * * < 3 3 2 2 3 4 x x x x x x P 9.9.t.h.h.#.h h h h h h h h h h h h h h h h h ",
"h h h h h h h h h h h h h h h h h Y 9.9.p.h.h.| x x b 7.9.9.9.9.9.V 3 1 < * * * @ @ @ @ @ @ @ @ @ @ * * * , 3 3 2 2 3 4 x x x x x x L 9.9.t.h.h.#.h h h h h h h h h h h h h h h h h ",
"h h h h h h h h h h h h h h h h h Y 9.9.f.h.h.| x x b 9.9.9.9.9.9.V 3 3 < * * * # @ @ @ @ @ @ @ @ # * * ; , k , 2 2 4 k k z z z x x L 9.9.t.h.h.#.h h h h h h h h h h h h h h h h h ",
"h h h h h h h h h h h h h h h h h Y 9.9.f.h.h.| x x b 9.9.9.9.9.9.V 3 3 < * * & @ @ @ @ @ @ @ @ @ # * * = , , k 3 3 , 3 z z x x x x K 9.9.t.h.h.#.h h h h h h h h h h h h h h h h h ",
"h h h h h h h h h h h h h h h h h Y q.q.p.h.g.| x x b 6.7.9.9.9.9.V 3 3 < * * * # # @ @ @ @ @ @ @ # * * = , k , k k 5 k x x x x x x L 9.9.t.h.h.#.h h h h h h h h h h h h h h h h h ",
"h h h h h h h h h h h h h h h h h Y q.q.f.h.h.| x x x c c c U 9.9.V 3 3 1 * * * & * & # @ @ $ * * * * = = , , k V 7.7.U x x x x x x L 9.9.t.h.h.#.h h h h h h h h h h h h h h h h h ",
"h h h h h h h h h h h h h h h h j Y 9.9.f.h.h.| x x x x x c U 7.7.A 5 5 3 ; - - = * * $ @ @ $ * * * = * ; , k , S 9.9.U x x x x x x L 9.q.t.h.h.#.h h h h h h h h h h h h h h h h h ",
"h h h h h h h h h h h h h h h h j Y 9.9.f.h.h.| x x x x x x 6 4 5 D 7.7.7.5.U U ; * * $ @ @ $ * * * , , , , , 3 S 9.9.U c x x x x x L 9.9.t.h.h.#.h h h h h h h h h h h h h h h h h ",
"h h h h h h h h h h h h h h h h h Y 9.9.f.h.h.| x x x x x k 4 2 3 S 9.9.9.9.9.5.: * * $ @ @ $ * = ; 3 3 , k , k S 9.9.U x x x x x x L 9.9.t.h.h.#.h h h h h h h h h h h h h h h h h ",
"h h h h h h h h h h h h h h h h h Y 9.9.f.h.h.| x x x x x x 4 3 3 3 5 5 b 9.9.5.> & * * & * * * * ; , 3 k , k , S 9.9.5.c x x x x x L 9.q.t.h.h.#.h h h h h h h h h h h h h h h h h ",
"h h h h h h h h h h h h h h h h h Y 9.9.p.h.h.| x x x x x x 4 3 3 , 3 3 z 7.9.5.: * * * * * = * * = , k 3 3 3 3 S 9.9.U z z z c x x K q.9.t.h.h.=.h h h h h h h h h h h h h h h h h ",
"h h h h h h h h h h h h h h h h h u s s 3.h.h.| x x x x x x k k c k 3 3 , k k k - * * * * * * * * = , , 3 3 3 3 S 9.9.U c z c z x x L 9.9.t.h.h.#.h h h h h h h h h h h h h h h h h ",
"h h h h h h h h h h h h h h h h h h h h 1.h.h.| x x x x x x x x c k 3 3 k , 3 , = * * * * * * * = = k , , 3 k , A 9.9.5.c z z c x x L 9.9.t.h.h.#.h h h h h h h h h h h h h h h h h ",
"h h h h h h h h h h h h h h h h h h h h o.w.w.u.a.a.$.v x x x x z 5 3 3 3 3 k , = * * * * * * * * ; , k k K 5.9.K c b c z z c P 7.7.u.g.g.<.d d d h h h h h h h h h h h h h h h h h ",
"h h h h h h h h h h h h h h h h h h h h +.9.q.y.h.h.i.c c x x x z 3 3 3 3 3 3 3 = * * * * * * * * = , k , 5.9.9.D x x x c x c 5.9.9.p.h.h.:.h h h h h h h h h h h h h h h h h h h h ",
"h h h h h h h h h h h h h h h h h h h h o.9.9.u.h.h.i.M x x x x z k 3 3 3 3 3 , = * * * * * * * * , P 5.5.9.9.9.D x x x z x c 5.9.9.p.h.h.1.h h h h h h h h h h h h h h h h h h h h ",
"h h h h h h h h h h h h h h h h h h h h o.9.9.y.h.h.i.M x x x x z 3 3 3 3 3 k , = = * * * * = ; * , 7.9.9.9.9.9.D x x x x x c 5.q.9.f.h.h.:.h h h h h h h h h h h h h h h h h h h h ",
"h h h h h h h h h h h h h h h h h h h h o.9.9.u.h.h.i.c x x x x z k 3 3 3 3 , 4 , , , - * * ; , , , c c z z b z c x x x x x c 5.9.q.f.g.h.:.h h h h h h h h h h h h h h h h h h h h ",
"h h h h h h h h h h h h h h h h h h h h o.9.9.y.h.h.i.v x x x x z k , 4 3 3 , 4 , k , ; = * ; , , k 3 3 , , k , k k x x x x c 5.9.9.p.h.h.1.h h h h h h h h h h h h h h h h h h h h ",
"h h h h h h h h h h h h h h h h h h h h o.9.9.u.h.h.i.v x x x x z z k k k 3 3 5 K K P 4 * * ; k k , 3 , k k k k k x x x x x c 5.9.9.p.h.h.:.h h h h h h h h h h h h h h h h h h h h ",
"h h h h h h h h h h h h h h h h h h h h o.9.9.u.h.h.i.v x x x x z c z x k 3 3 k 5.9.9.k * * ; , , k , k , z x x x x x x x x c 5.9.q.p.h.h.:.h h h h h h h h h h h h h h h h h h h h ",
"h h h h h h h h h h h h h h h h h h h h f ! ! *.t.t.u.e... .M x z z x x k 3 3 3 z b c D A A S K K A k 3 3 z x x x x x b L L L t.p.f._ / / g h h h h h h h h h h h h h h h h h h h h ",
"h h h h h h h h h h h h h h h h h h h h h h h ) q.q.t.f.h.g.B l z z c z k 3 3 3 3 3 3 K 9.9.9.9.9.5.k , k k z x x x x b 9.9.q.f.h.h./ h h h h h h h h h h h h h h h h h h h h h h h ",
"h h h h h h h h h h h h h h h h h h h h h h h E q.7.t.g.h.g.B l z c c z k , 3 3 3 3 3 c b b b b b z , k , k z z x x x n 9.9.q.g.h.h./ h h h h h h h h h h h h h h h h h h h h h h h ",
"h h h h h h h h h h h h h h h h h h h h h h h ( q.q.q.g.h.h.N c z z c z z , 3 3 , 3 3 3 , k , 3 , k k , , x x x x x l n 9.9.q.g.h.h./ h h h h h h h h h h h h h h h h h h h h h h h ",
"h h h h h h h h h h h h h h h h h h h h h h h g ( R W t.t.t.e.}  .S z z z k k k k 3 3 , k , k , k , k z k k x x A L L P p.p.i.>./ / g h h h h h h h h h h h h h h h h h h h h h h h ",
"h h h h h h h h h h h h h h h h h h h h h h h h h h f 0.q.q.f.h.h.I x x x x x k 4 3 2 3 2 2 2 3 3 3 z z x x x x D 9.9.w.h.h.h.d h h h h h h h h h h h h h h h h h h h h h h h h h h ",
"h h h h h h h h h h h h h h h h h h h h h h h h h h a 0.q.q.f.h.h.I x x x x x x 6 6 6 6 6 k 6 6 6 k z x x x x x D 9.9.t.h.h.h.g h h h h h h h h h h h h h h h h h h h h h h h h h h ",
"h h h h h h h h h h h h h h h h h h h h h h h h h h s 0.9.w.f.h.h.I x c x x x x x x x x x x x x z x x c x x x x D 9.9.t.h.h.h.g h h h h h h h h h h h h h h h h h h h h h h h h h h ",
"h h h h h h h h h h h h h h h h h h h h h h h h h h d Q W &.s.u.u.e.J I H x x x x x x x x x x x x c S S D S D S T u.u.s.' ' ] i h h h h h h h h h h h h h h h h h h h h h h h h h h ",
"h h h h h h h h h h h h h h h h h h h h h h h h h h h h y i +.q.9.u.h.h.i.c x c x x x x x x x x x v 7.9.9.9.9.9.u.h.h.4.j h h h h h h h h h h h h e h e h h h h h h h h h h h h h h ",
"h h h h h h h h h h h h h h h h h h h h h h h h h h h h h j E %.%.@.p.u.e.S A S S A A D S S A D S D 9.9.9.t.u.t.{ >.>.] h h h h h h h h h h h h h 9 8 8 h h h h h h h h h h h h h h ",
"h h h h h h h h h h h h h h h h h h h h h h h h h h h h h h h h h Q 9.9.9.9.9.9.q.q.9.9.9.q.9.9.9.9.9.9.w.p.h.h.R h h h h h h h h h h h h h h h h 9 8 8 h h h h h h h h h h h h h h ",
"h h h h h h h h h h h h h h h h h h h h h h h e y h h h h h h h h ! *.[ o.t.y.y.y.y.y.y.t.y.t.y.t.t.t.u.u.,.:.:.p h h h h h h h h h h h e h e h h 8 8 8 h h h h h e h h h h h h h h ",
"h h h h h h h h h h h h h h h h h h h h h h 9 8 9 y h h h h h h h h h h ^ h.h.h.h.h.h.h.h.h.h.h.h.h.h.h.h.^ h h h h h h h h h h h h h q 8 8 w h h 0 8 8 h h h 9 8 q h h h h h h h h ",
"h h h h h h h h h h h h h h h h h h h h h y 0 8 9 y h h h h h h h h h h d >.-.-.-.-.-.-.-.>.>.' -.-.-.-.>.g h h h h h h h h h h h h h w 8 8 e h h 9 8 8 h h e 9 8 0 h h h h h h h h ",
"h h h h h h h h h h h h h h h h y e e h h h 0 8 8 t y h w e y h h h h h h h h h j h h h h h h h h h j h h h h h h h h h h h h h h h h e 0 q w w w 0 0 w w e w 0 0 w h h h h h h h h ",
"h h h h h h h h h h h h h h h h e 8 8 e h h 9 8 8 y y y 8 9 0 h h h h h h h h h h h h h h h h h h h h h h h h h h h h h h h h h h h h h h h 0 8 8 h h h 8 8 0 h h h h h h h h h h h ",
"h h h h h h h h h h h h h h h h y 8 8 e y h 0 8 9 y y y 8 9 9 y h h h h h h h h h h h h h h h h h h h h h h h h h h h h h h h h h h h h h h 0 8 8 h h h 8 8 0 h h h h h h h h h h h ",
"h h h h h h h h h h h h h h h h y e e e w e e e w w w r r w t y h h h h h h h h h h h h h h h h h h h h h h h h h h h h h h h h h h h h h h h w w 0 w w w w e h h h h h h h h h h h ",
"h h h h h h h h h h h h h h h h h h y 0 8 8 y h y 9 8 9 h h y h h h h h h h h h h h h h h h h h h h h h h h h h h h h h h h h h h h h h h h h h h 8 8 8 h h h h h h h h h h h h h h ",
"h h h h h h h h h h h h h h h h h h h w 8 8 y h i 9 9 w h h h h h h h h h h h h h h h h h h h h h h h h h h h h h h h h h h h h h h h h h h h h h 9 8 8 h h h h h h h h h h h h h h ",
"h h h h h h h h h h h h h h h h h h h t e e e 0 0 t e y h h h h h h h h h h h h h h h h h h h h h h h h h h h h h h h h h h h h h h h h h h h h h y t y h h h h h h h h h h h h h h ",
"h h h h h h h h h h h h h h h h h h h h h h 9 8 8 y h h h h h h h h h h h h h h h h h h h h h h h h h h h h h h h h h h h h h h h h h h h h h h h h j h h h h h h h h h h h h h h h ",
"h h h h h h h h h h h h h h h h h h h h h h 9 8 8 y h h h h h h h h h h h h h h h h h h h h h h h h h h h h h h h h h h h h h h h h h h h h h h h h h h h h h h h h h h h h h h h h ",
"h h h h h h h h h h h h h h h h h h h h h h y y y h h h h h h h h h h h h h h h h h h h h h h h h h h h h h h h h h h h h h h h h h h h h h h h h h h h h h h h h h h h h h h h h h ",
"h h h h h h h h h h h h h h h h h h h h h h h h h h h h h h h h h h h h h h h h h h h h h h h h h h h h h h h h h h h h h h h h h h h h h h h h h h h h h h h h h h h h h h h h h h ",
"h h h h h h h h h h h h h h h h h h h h h h h h h h h h h h h h h h h h h h h h h h h h h h h h h h h h h h h h h h h h h h h h h h h h h h h h h h h h h h h h h h h h h h h h h h ",
"h h h h h h h h h h h h h h h h h h h h h h h h h h h h h h h h h h h h h h h h h h h h h h h h h h h h h h h h h h h h h h h h h h h h h h h h h h h h h h h h h h h h h h h h h h ",
"h h h h h h h h h h h h h h h h h h h h h h h h h h h h h h h h h h h q q h e t h q q q h q q q e q q h e e y h h h h h h h h h h h h h h h h h h h h h h h h h h h h h h h h h h h ",
"h h h h h h h h h h h h h h h h h h h h h h h h h h h h h h h h h h 0 o                                     O q h h h h h h h h h h h h h h h h h h h h h h h h h h h h h h h h h h ",
"h h h h h h h h h h h h h h h h h h h h h h h h h h h h h h h h h h 0 + X X . X . . . . X X X X X X X X X X + r h h h h h h j h h h h h j h h h h h h h h h h h h h h h h h h h h h "
};
