/* XPM */
static char *result[] = {
/* columns rows colors chars-per-pixel */
"90 90 150 2 ",
"   c #000000",
".  c #10170D",
"X  c #10190D",
"o  c #141D10",
"O  c #182313",
"+  c #1D2916",
"@  c #202F19",
"#  c #0E1C2B",
"$  c #0D2133",
"%  c #112637",
"&  c #122A3E",
"*  c #293B20",
"=  c #2C4123",
"-  c #0A2B43",
";  c #0A2F49",
":  c #142E44",
">  c #0B314B",
",  c #153248",
"<  c #0D3552",
"1  c #0C3B5C",
"2  c #123D5D",
"3  c #19405E",
"4  c #0C4165",
"5  c #0C456B",
"6  c #0D486E",
"7  c #144466",
"8  c #1B4362",
"9  c #16466A",
"0  c #16496C",
"q  c #0D4970",
"w  c #104D76",
"e  c #1F4E71",
"r  c #114F78",
"t  c #12517B",
"y  c #5D8549",
"u  c #638D4D",
"i  c #66934F",
"p  c #6C9B53",
"a  c #6DA558",
"s  c #6FA859",
"d  c #73A65A",
"f  c #74AC5C",
"g  c #7AAF5E",
"h  c #77B05E",
"j  c #78B15F",
"k  c #7AAF60",
"l  c #7CB561",
"z  c #7FB863",
"x  c #7CB76E",
"c  c #7FB96E",
"v  c #69A57C",
"b  c #6EB07F",
"n  c #76B375",
"m  c #7BB673",
"M  c #7EB872",
"N  c #72B279",
"B  c #7BB77B",
"V  c #82BB65",
"C  c #80BA69",
"Z  c #165681",
"A  c #1C5780",
"S  c #165A87",
"D  c #185986",
"F  c #175B89",
"G  c #1A5C8A",
"H  c #1F608D",
"J  c #1D6393",
"K  c #1F6798",
"L  c #1F689A",
"P  c #21638F",
"I  c #226593",
"U  c #266894",
"Y  c #286A96",
"T  c #216B9D",
"R  c #2B6D99",
"E  c #2D709B",
"W  c #31739F",
"Q  c #226EA1",
"!  c #2471A5",
"~  c #2873A6",
"^  c #2675AA",
"/  c #2977AD",
"(  c #2778AE",
")  c #2A79AF",
"_  c #3274A1",
"`  c #3578A3",
"'  c #387EAB",
"]  c #2779B0",
"[  c #2A7CB3",
"{  c #2B7FB8",
"}  c #3C80AA",
"|  c #2E84BE",
" . c #3A8BB3",
".. c #3084BD",
"X. c #659C80",
"o. c #619D92",
"O. c #5FA794",
"+. c #57A39F",
"@. c #6AAD84",
"#. c #67A58D",
"$. c #67AC89",
"%. c #77B486",
"&. c #79B581",
"*. c #76B38C",
"=. c #60A892",
"-. c #6BAB94",
";. c #70AF9E",
":. c #71B190",
">. c #71B09B",
",. c #4286B2",
"<. c #4589B3",
"1. c #4699B5",
"2. c #489AB3",
"3. c #4C90BA",
"4. c #4598B9",
"5. c #519FB3",
"6. c #5195BF",
"7. c #51A0A6",
"8. c #55A1AB",
"9. c #6EAEA5",
"0. c #65A5AA",
"q. c #67ABAB",
"w. c #6BADAE",
"e. c #60A6B4",
"r. c #67ABB2",
"t. c #69ABB4",
"y. c #66A9BE",
"u. c #68ABB8",
"i. c #2F86C1",
"p. c #3087C3",
"a. c #3189C5",
"s. c #3B8DC3",
"d. c #348FCD",
"f. c #3A92C6",
"g. c #3690CD",
"h. c #3A92CD",
"j. c #4893C4",
"k. c #4597CE",
"l. c #4897C9",
"z. c #4698CE",
"x. c #4A9ACD",
"c. c #5196C0",
"v. c #559AC3",
"b. c #529ECD",
"n. c #5A9FC8",
"m. c #5CA4C5",
"M. c #56A0CE",
"N. c #5CA3CE",
"B. c #64A8C6",
"V. c #61A6CF",
/* pixels */
"V V V V V V V V V V V V V V V V V V V V V V V V V V V V V V V V V V V V B V.V.V.V.V.V.V.V.V.V.V.V.V.V.V.V.B V V V V V V V V V V V V V V V V V V V V V V V V V V V V V V V V V V V V ",
"V V V V V V V V V V V V V V V V V V V V V V V V V V V V V V V V V c M c %.N.N.N.V.N.V.N.N.V.N.N.V.N.N.V.N.%.M c z V V V V V V V V V V V V V V V V V V V V V V V V V V V V V V V V V ",
"V V V V V V V V V V V V V V V V V V V V V V V V V V V V V V V V V ;.B.B.m.h.h.h.h.d.h.d.h.h.g.h.g.g.h.h.h.N.B.B.@.V V V V V V V V V V V V V V V V V V V V V V V V V V V V V V V V V ",
"V V V V V V V V V V V V V V V V V V V V V V V V V V V V V V V V V ;.V.V.M.g.d.g.d.d.d.d.d.d.d.d.g.d.g.g.g.M.V.V.X.V V V V V V V V V V V V V V V V V V V V V V V V V V V V V V V V V ",
"V V V V V V V V V V V V V V V V V V V V V V V V V V V V V C 2.h.f.b.V.V.j.H F G G G G G G G G G F K a.g.d.g.h.g.b.B.B.t.C V V V V V V V V V V V V V V V V V V V V V V V V V V V V V ",
"V V V V V V V V V V V V V V V V V V V V V V V V V V V V V x 4.d.g.x.V.V.6.G D D D D D D D D D S D J p.d.d.d.g.a.x.V.V.u.C V V V V V V V V V V V V V V V V V V V V V V V V V V V V V ",
"V V V V V V V V V V V V V V V V V V V V V V V V V V n 2.4.4.n.M.M.,.R Y U G D D D D D D D D S S D D J K J J J K [ k.h.l.u.u.r.m V V V V V V V V V V V V V V V V V V V V V V V V V V ",
"V V V V V V V V V V V V V V V V V V V V V V V V V V N f.d.g.M.V.V.} D D D D D D D D D D D D S S D D D D S D D D ^ d.d.k.V.V.B.B V V V V V V V V V V V V V V V V V V V V V V V V V V ",
"V V V V V V V V V V V V V V V V V V V V V V V V V V n h.d.g.M.V.V.} D D D D D Z t w w w w q r w w r D D D D D D ^ d.d.h.V.V.B.B V V V V V V V V V V V V V V V V V V V V V V V V V V ",
"V V V V V V V V V V V V V V V V V V V V V V V V V V N h.d.g.N.V.V.} D D D S D Z q q q q q q q q q q Z D D D D D ^ d.d.k.V.V.B.B V C V V V V V V V V V V V V V V V V V V V V V V V V ",
"V V V V V V V V V V V V V V V V V V V V V V V @.7.7.8.b.b.b.' ` ` R D D S r t t q q q L ! ^ J q q q w r w Z D D J Q Q / z.z.z.r.9.9.B V V V V V V V V V V V V V V V V V V V V V V V ",
"V V V V V V V V V V V V V V V V V V V V V V V =.d.d.h.N.V.n.Y D S D D D t q q q q q q ] d.d.^ q q q q q q Z D D D D D J d.g.g.n.V.V.*.V V V V V V V V V V V V V V V V V V V V V V V ",
"V V V V V V V V V V V V V V V V V V V V V V C =.d.d.h.N.V.N.U D D D D D Z 6 q q T T Q T Q Q J 6 q q q q q Z D D D D D J d.d.g.N.V.V.*.V V V V V V V V V V V V V V V V V V V V V V V ",
"V V V V V V V V V V V V V V V V V V V V V V V =.d.d.h.V.V.N.Y A D D D D Z q q t i.d.d.J q q q q q q q q q Z D D D D D I d.d.g.M.V.V.*.V V V V V V V V V V V V V V V V V V V V V V V ",
"V V V V V V V V V V V V V V V V V V V V $.=.O.8.z.x.l.<.,.,.I D D D D D Z q q r Q ! ! t 1 1 4 q q q q q q Z D D D D D G ^ ^ ) l.x.x.q.-.#.v z V V V V V V V V V V V V V V V V V V V ",
"V V V V V V V V V V V V V V V V V V V V 2.d.d.x.V.V.v.P D D D D D D D D t q q q q q q < - - < q 6 q q q q Z D D D D D D G D G p.g.g.M.V.V.0.j V V V V V V V V V V V V V V V V V V V ",
"V V V V V V V V V V V V V V V V V V V V 2.g.g.z.V.V.v.H D D D D D J Q Q J q q q q q q < - - 2 J G J J G J Z t t S S D D D D D i.d.d.M.V.V.0.j V V V V V V V V V V V V V V V V V V V ",
"V V V V V V V V V V V V V V V V V V V V 2.g.g.z.V.V.v.H D D D D D ^ d.d.{ q q q q 6 q < - - A d.d.d.d.d.d.S q q t S D D D D D i.d.d.b.V.V.t.V V V V V V V V V V V V V V V V V V V V ",
"V V V V V V V V V V V V V V V V V V V V 1.g.g.z.V.V.v.P D D I T T [ d.d.{ w q 6 4 4 4 9 9 9 G / / ] { { { L F F S D D D D D G i.d.d.b.V.V.w.V V V V V V V V V V V V V V V V V V V V ",
"V V V V V V V V V V V V V V V V V V V V 1.g.g.z.V.V.v.G D G i.d.d.d.d.d.{ q 6 5 ; - - ! d.d.Y - - ; 5 q q | g.g.^ D D D D D D i.d.d.b.V.V.t.V V V V V V V V V V V V V V V V V V V V ",
"V V V V V V V V V V V V V V V V V V V V 2.g.g.k.V.V.v.P D G | g.d.p.i.i.] q q 5 ; - - P | { I - - > 5 q q ( i.i.^ D D D D D G p.g.g.b.V.V.w.V V V V V V V V V V V V V V V V V V V V ",
"V V V V V V V V V V V V V V V V V V V V 2.g.g.z.V.V.v.H D F i.d.d.Q q q q q q 6 ; - - - - - ; - - > 5 q q q q q r D D D D D D p.g.g.b.N.V.w.V C V V V V V V V V V V V V V V V V V V ",
"V V V V V V V V V V V V V V V V V V V V 2.h.g.l.n.n.c.H D G i.d.d.Q q q q q q 5 ; - - - - - - - - > 5 6 q 6 q q t D D D D D G { p.p.x.N.N.t.M M c V V V V V V V V V V V V V V V V V ",
"V V V V V V V V V V V V V V V V V V V V t.N.N.<.H H G D D G ..d.d.Q q 6 6 q q 5 ; - - - - - - - - > 5 6 q q q q t D D D D D D G F S ..g.h.x.B.V.u.V V V V V V V V V V V V V V V V V ",
"V V V V V V V V V V V V V V V V V V V V u.V.V.<.F S D D D G p.d.d.L q q q q q 5 ; - - - - - - - - ; 6 q q q q q t D S D D D D D D D [ d.d.k.V.V.u.V V V V V V V V V V V V V V V V V ",
"V V V V V V V V V V V V V V V V V  .g.g.M.V.V.<.F S D D D F | d.d.Q q q q q q 5 ; - - - - - - - - ; 5 q q q q q q q q q D D D D D D ] d.d.k.V.V.y.V V V V V V V V V V V V V V V V V ",
"V V V V V V V V V V V V V V V V z  .g.g.M.V.V.<.D D S G F H | d.d.T 6 q q q q 5 ; - - - - - - - - < q q q w q q q q q w D D D D D D [ d.d.k.V.V.y.V V V V V V V V V V V V V V V V V ",
"V V V V V V V V V V V V V V V V z  .g.d.M.V.V.<.D D J ..p.p.d.d.d.Q 6 q q q q 5 ; - - $ $ # $ - - 2 [ | i.i.i.i.I q q w D D D D D D [ d.d.k.V.N.y.V V V V V V V V V V V V V V V V V ",
"V V V V V V V V V V V V V V V V z  .d.d.b.N.V.<.D D K d.d.d.d.d.d.L q q q q q 5 ; - - $ # # $ - - 2 a.d.d.d.d.d.Q q q w D D D D D D [ d.d.z.V.V.y.V V V V V V V V V V V V V V V V V ",
"V V V V V V V V V V V V V V V V l  .d.d.M.V.V.<.D D I a.d.d.d.d.d.L q q 4 ; > ; - - - $ # # 8 ) / Q 0 7 7 Z F F ^ { { / D D D D D D [ d.d.x.V.V.y.V V V V V V V V V V V V V V V V V ",
"V V V V V V V V V V V V V V V V l  .d.d.M.V.V.<.D D J a.d.d.d.d.d.Q q q 4 - - - - - : $ # # e g.h.{ < - - 4 q q Q d.d.{ F D D D D D [ d.d.z.V.V.y.V V V V V V V V V V V V V V V V V ",
"V V V V V V V V V V V V V V V V l  .d.d.M.N.V.<.D D D T T Q a.d.d.Q q q 4 - - - $ $ $ # # # & 3 8 2 ; - - 4 q q ! d.d.i.D D D D D D [ d.d.z.V.V.y.V V V V V V V V V V V V V V V V V ",
"V V V V V V V V V V V V V V V V C  .d.d.M.V.V.<.D D D D D G | d.d.Q q q 4 - - - # # # # # # # # # # & - - 4 q q Q d.d.{ F F F S D D [ d.d.k.V.V.B.V V V V V V V V V V V V V V V V V ",
"V V V V V V V V V V V V V V V V C  .d.d.M.V.V.<.D D D D D G ..d.d.L q q 4 - - - # # # # # # # # # # - - - 4 q q S K K Q [ ] ] G D D [ d.d.k.V.V.y.V V V V V V V V V V V V V V V V V ",
"V V V V V V V V V V V V V V V V C  .d.d.M.V.V.<.D D D D D G p.d.d.Q q q 4 - - - # # # # # # # # # # - - - 4 q q q q q S d.d.d.J D D [ d.d.k.N.V.y.V V V V V V V V V V V V V V V V V ",
"V V V V V V V V V V V V V V V V V  .d.d.M.V.V.<.D D D D D D L T Q Q Q L S - - & # # # # # # # # # # % - - 4 q q q q q S d.d.a.J D D [ d.d.z.V.V.B.V V V V V V V V V V V V V V V V V ",
"V V V V V V V V V V V V V V V V V  .h.g.b.V.V.<.D D D D D D w q q ! d.d.] ; - - # # # # # # # # # $ - - - 4 5 q q q 5 S d.d.d.J D D [ d.d.k.V.V.y.V V V V V V V V V V V V V V V V V ",
"V V V V V V V V V V V V V V V V V  .d.g.M.V.V.<.D D D D D D q 6 q Q d.d.i.A Z e $ # # # o # # # # # - - - 4 q q q q q F d.d.a.J D D [ d.d.k.V.V.y.V V V V V V V V V V V V V V V V V ",
"V V V V V V V V V V V V V V V V C  .d.g.M.V.V.<.D D D D D D w q q ! d.d.d.d.d...: # # # # # # # # $ - - - 4 5 q q q q S d.d.d.J D D [ d.d.k.V.V.y.V V V V V V V V V V V V V V V V V ",
"V V V V V V V V V V V V V V V V V  .d.d.b.V.V.<.D D D D D D q q q J [ [ / ~ ~ T & # # # # # # # # # - - - 4 q q q q 5 S d.d.d.J S F [ d.d.z.V.V.y.V V V V V V V V V V V V V V V V V ",
"V V V V V V V V V V V V V V V V V  .d.d.b.V.V.<.D D D D D D w q q q q q 4 - - & # # # # # # # # # $ - - - 4 q q q q q S d.d.a.J D D ] d.d.k.V.V.y.V V V V V V V V V V V V V V V V V ",
"V V V V V V V V V V V V V V V V V  .d.d.M.N.V.<.D D D D D D q q q q q 6 4 - - & # # # # # # # # # # - - - 5 5 q q 5 q S d.d.a.J D D [ d.d.k.V.V.y.V V V V V V V V V V V V V V V V V ",
"V V V V V V V V V V V V V V V V V  .g.d.M.V.V.<.D D D D D D q q q 6 q q 4 - - - # # # # # # # # # # - - - 4 q q q q q F d.d.d.J D D [ d.d.k.N.V.y.V V V V V V V V V V V V V V V V V ",
"V V V V V V V V V V V V V V V V V  .g.g.M.V.V.<.D D D D D Z w q q q q q 4 - - - $ $ # # # # % , : ; - - - 4 5 q q q q F d.d.a.J D D [ d.d.k.V.V.y.V V V V V V V V V V V V V V V V V ",
"V V V V V V V V V V V V V V V V C  .d.d.M.V.V.<.D D D D D D q q q q q q 4 - - - - - - # # # e a.a.{ < - - 4 q q q q q S d.d.d.J D D [ d.d.z.V.V.y.V V V V V V V V V V V V V V V V V ",
"V V V V V V V V V V V V V V V V C  .d.d.M.V.V.<.D D D D D D w q 6 q q q 4 - - - - - - $ # # e d.d.{ < - - 4 q q q q q S d.d.d.J D D [ d.d.z.V.V.y.V V V V V V V V V V V V V V V V V ",
"V V V V V V V V V V V V V V V V V  .d.d.M.V.V.<.D D D D D D w q q q q q 6 q q 5 ; - - $ # # w d.d.| Z 5 q q q q q q q w D D S S D D [ d.d.z.V.V.y.V V V V V V V V V V V V V V V V V ",
"V V V V V V V V V V V V V V V V V  .d.d.M.V.V.<.D D D D D D q q q q 6 q q q 6 5 ; - - $ # # e d.d.{ Z 5 q q 5 q q q q q D D D D D D [ d.d.z.V.V.y.V V V V V V V V V V V V V V V V V ",
"V V V V V V V V V V V V V V V V V  .d.d.M.V.N.<.D D D D D D q q 6 q q q q q q 5 ; - - - - - ; < < 9 | p.p.Z q q q q q Z a.d.i.J D D [ d.d.k.V.V.B.V V V V V V V V V V V V V V V V V ",
"V V V V V V V V V V V V V V V V V  .d.d.M.V.V.<.D D D D D D w q q q q 6 q q 6 5 ; - - - - - ; - - 2 a.d.d.F q q q q q F d.d.a.J D D [ d.d.k.V.V.y.V V V V V V V V V V V V V V V V V ",
"V V V V V V V V V V V V V V V V V n n n y.V.V.<.D D D D D D Z A Z r q q q 6 q 5 ; - - - - - - - - 2 a.d.d.F q q Z Z Z D J J J F D D [ g.d.k.V.V.y.V V V V V V V V V V V V V V V V V ",
"V V V V V V V V V V V V V V V V V V V V r.V.V.<.D D D D D D D D D r q q q q 6 5 ; - - - - - - - - 2 a.d.d.Z q q w Z D D D D D D D S [ d.d.k.V.V.y.V V V V V V V V V V V V V V V V V ",
"V V V V V V V V V V V V V V V V V V V V 5.k.k.x.3.3.,.G D D D D D w q q 6 q q 5 ; - - - - - - - - 2 p.d.d.D q q Z D D D D D F ] { { j.b.M.e.%.%.&.V V V V V V V V V V V V V V V V V ",
"V V V V V V V V V V V V V V V V V V V V 1.d.d.z.V.V.v.H D D D D D Z q q q 6 q 5 ; - - - - - - - - 2 p.d.d.D q q Z D D D D D G | d.d.b.V.V.w.V V V V V V V V V V V V V V V V V V V V ",
"V V V V V V V V V V V V V V V V V V V V 2.d.d.x.V.V.v.H D D D D D r 6 q q q q 5 ; - - - - - 0 I K I K K K Z q q w Z D D D D G | g.d.b.V.V.w.V V V V V V V V V V V V V V V V V V V V ",
"V V V V V V V V V V V V V V V V V V V V 2.d.d.z.V.V.v.J D D D D D r q q q q q 5 ; - - - - ; A d.d...Z 5 q q q q Z D D D D D G i.d.g.b.V.V.w.V V V V V V V V V V V V V V V V V V V V ",
"V V V V V V V V V V V V V V V V V V V V 2.g.d.x.V.V.v.H D D D D D K ! Q L q q 5 1 1 1 > - - A d.d.| Z q q q q 5 w D D D D D G | d.d.b.V.V.t.V V V V V V V V V V V V V V V V V V V V ",
"V V V V V V V V V V V V V V V V V V V V 2.a.d.z.V.V.v.H D D D D F / d.d.{ w q q q q q < - - A d.d.{ w q q q q 5 Z D D D D D G | d.g.b.V.V.w.V V V V V V V V V V V V V V V V V V V V ",
"V V V V V V V V V V V V V V V V V V V V 2.d.d.x.V.V.v.H D D D D D Q / / Q q q w J L K F Z D I ! ! Q w q q w w Z Z D D D D D G i.d.d.b.N.V.w.V V V V V V V V V V V V V V V V V V V V ",
"V V V V V V V V V V V V V V V V V V V V 2.h.d.x.V.V.v.H D D D D D D S D Z q 5 Z i.d.d.d.d.d.^ 6 q 5 q q 5 Z D D Z Z D D D D G | d.d.b.V.V.w.V V V V V V V V V V V V V V V V V V V V ",
"V V V V V V V V V V V V V V V V V V V V 7.2.1.c.M.M.v._ E E H D D D D S Z q 5 Z i.d.d.| [ { L q q q q q q Z D D D D D G K K K s.k.k.m.t.t.>.V V V V V V V V V V V V V V V V V V V V ",
"V V V V V V V V V V V V V V V V V V V V V V V =.d.d.h.N.V.N.Y D D D D S Z q q w i.d.d.J q q q q q q q q q Z D D D D D J d.d.h.M.V.V.*.V V V V V V V V V V V V V V V V V V V V V V V ",
"V V V V V V V V V V V V V V V V V V V V V V C =.d.d.h.N.V.N.U D D D F S Z q q w ^ { { J q q q q q q q q q Z D D D D D K d.d.h.M.V.V.*.V V V V V V V V V V V V V V V V V V V V V V V ",
"V V V V V V V V V V V V V V V V V V V V V V C =.d.d.k.N.V.N.U D D D Z Z Z q q q q q q q 5 q q q q 5 q q 5 Z D D D D D J d.d.h.N.V.V.*.V V V V V V V V V V V V V V V V V V V V V V V ",
"V V V V V V V V V V V V V V V V V V V V V V V @.f.f.f.N.N.N.W H P D D D A q q q q q q q q q q q q q q q q Z D D G G H T h.h.h.B.B.B.*.V V V V V V V V V V V V V V V V V V V V V V V ",
"V V V V V V V V V V V V V V V V V V V V V V V V V V b f.g.h.N.V.V.,.D D D D D Z q q q q q q q q q q D D D D D D ^ d.d.h.V.V.B.B V V V V V V V V V V V V V V V V V V V V V V V V V V ",
"V V V V V V V V V V V V V V V V V V V V V V V V V V n f.g.g.M.V.V.' D D D D D Z q q q q q q q q q r D D D D D D ^ d.d.h.V.V.B.B V V V V V V V V V V V V V V V V V V V V V V V V V V ",
"V V V V V V V V V V V V V V V V V V V V V V V V V V B f.g.g.M.V.B.' D D D D D D D D D D D D D D D D D D D D D D ^ d.d.k.V.V.B.B V V V V V V V V V V V V V V V V V V V V V V V V V V ",
"V V V V V V V V V V V V V V V V V V V V V V V V V V b f.g.g.M.V.V.' D D D D D D D D D D D D D D D D D D D D D D / d.d.h.V.V.V.C V V V V V V V V V l l l V V V V V V V V V V V V V V ",
"V V V V V V V V V V V V V V V V V V V V V V V V V V V M m n 4.g.h.b.N.n.3.S S D D D D D D D D D D J i.a.a.a.a.a.x.V.N.y.&.C C C V V V V V V V V V s a a V V V V V V V V V V V V V V ",
"V V V V V V V V V V V V V V V V V V V V V V V V V V V V V c 4.g.g.x.N.V.c.G S D G D D D D D D D D J d.d.d.d.d.d.b.V.V.B.C V V V V V V V V V V V V s a a V V V V V V V V V V V V V V ",
"V V V V V V V V V V V V V V V V V V V V V V V j z z V V V z n N N 8.h.k.h...| | i.| | | ..| i.| { i.d.d.d.b.N.M.o.%.C C C V V V V V V V V l j V V s a a V V V z z l V V V V V V V V ",
"V V V V V V V V V V V V V V V V V V V V V V s a a j V V V V V V V +.d.g.d.d.g.g.d.g.g.d.g.g.d.d.d.d.d.d.g.M.V.V.X.V V V V V V V V V V d a a h V V f a a V V V a a f V V V V V V V V ",
"V V V V V V V V V V V V V V V V V V V V V V f a s V V V V V V V V m b b -.M.M.M.M.M.M.M.M.M.M.M.M.M.M.M.M.:.%.&.C V V V V V V V V V V g a a z V V a a a V V l a a f V V V V V V V V ",
"V V V V V V V V V V V V V V V V V h h V V V f a a j V V h h V V V V V V &.N.V.V.V.V.V.V.V.V.V.V.V.V.V.V.V.%.V V V V V V V V V V V V V j h f j j j f f f h j j f f j V V V V V V V V ",
"V V V V V V V V V V V V V V V V j a a f V V f a a z V V a a f V V V V V c *.*.*.*.*.*.*.*.*.*.*.*.*.*.*.*.C V V V V V V V V V V V V V V V V f a s z V V a a f V V V V V V V V V V V ",
"V V V V V V V V V V V V V V V V z a a h V V f a s V V j a s s V V V V V V V V V V V V V V V V V V V V V V V V V V V V V V V V V V V V V V V f d a z V V a a f z V V V V V V V V V V ",
"V V V V V V V V V V V V V V V V l h j j h h h h f h h h h h j V V V V V V V V V V V V V V V V V V V V V V V V V V V V V V V V V V V V V V V l f j f h h h h j V V V V V V V V V V V ",
"V V V V V V V V V V V V V V V V V V V f a a j V V f a f V V V V V V V V V V V V V V V V V V V V V V V V V V V V V V V V V V V V V V V V V V V V V a a a V V V V V V V V V V V V V V ",
"V V V V V V V V V V V V V V V V V V V h a s z V V a a f V V V V V V V V V V V V V V V V V V V V V V V V V V V V V V V V V V V V V V V V V V V V V f a a V V V V V V V V V V V V V V ",
"V V V V V V V V V V V V V V V V V V V j j j j f f j j z V V V V V V V V V V V V V V V V V V V V V V V V V V V V V V V V V V V V V V V V V V V V V z l z V V V V V V V V V V V V V V ",
"V V V V V V V V V V V V V V V V V V V V V V f a s V V V V V V V V V V V V V V V V V V V V V V V V V V V V V V V V V V V V V V V V V V V V V V V V V V V V V V V V V V V V V V V V V ",
"V V V V V V V V V V V V V V V V V V V V V V f s a V V V V V V V V V V V V V V V V V V V V V V V V V V V V V V V V V V V V V V V V V V V V V V V V V V V V V V V V V V V V V V V V V ",
"V V V V V V V V V V V V V V V V V V V V V V j z j V V V V V V V V V l u y y y y y y y y y y y y y y y y y y i V V V V V V V V V V V V V V V V V V V V V V V V V V V V V V V V V V V ",
"V V V V V V V V V V V V V V V V V V V V V V V V V V V V V V V V V V f o                                     O g V V V V V V V V V V V V V V V V V V V V V V V V V V V V V V V V V V ",
"V V V V V V V V V V V V V V V V V V V V V V V V V p p p p p p p p p u X                                     X i p p p p p p p p f V V V V V V V V V V V V V V V V V V V V V V V V V ",
"V V V V V V V V V V V V V V V V V V V V V V V V l +                                                                             @ V V V V V V V V V V V V V V V V V V V V V V V V V ",
"V V V V V V V V V V V V V V V V V V V V V V V V l * . . . X X X . X .                                         . X . X . . X X X = V V V V V V V V V V V V V V V V V V V V V V V V V ",
"V V V V V V V V V V V V V V V V V V V V V V V V V l g g g g g g g g p X                                     O d j g g g g g k g g V V V V V V V V V V V V V V V V V V V V V V V V V ",
"V V V V V V V V V V V V V V V V V V V V V V V V V V V V V V V V V V f o                                     O l V V V V V V V V V V V V V V V V C V V V C V V V V V V C V V V V V V "
};
