/* XPM */
static char *result[] = {
/* columns rows colors chars-per-pixel */
"90 90 169 2 ",
"   c #010101",
".  c #050804",
"X  c #080D07",
"o  c #0E1C2B",
"O  c #0D1F30",
"+  c #0D202F",
"@  c #0D2133",
"#  c #0B263B",
"$  c #293A20",
"%  c #2E4224",
"&  c #324827",
"*  c #344B29",
"=  c #3C562F",
"-  c #476637",
";  c #496A3A",
":  c #0A2B43",
">  c #0A2F49",
",  c #0A304B",
"<  c #0C3552",
"1  c #0D3B5B",
"2  c #103855",
"3  c #123C5B",
"4  c #0C3F60",
"5  c #13405F",
"6  c #0C4265",
"7  c #0D466B",
"8  c #0D486F",
"9  c #0D4970",
"0  c #104D76",
"q  c #104F78",
"w  c #1A5077",
"e  c #12517B",
"r  c #1C537A",
"t  c #638E4D",
"y  c #65914F",
"u  c #679450",
"i  c #699652",
"p  c #6C9B54",
"a  c #67985A",
"s  c #6FA157",
"d  c #6DA558",
"f  c #6FA859",
"g  c #70A157",
"h  c #72A459",
"j  c #75AA5C",
"k  c #79AD5E",
"l  c #77B05E",
"z  c #79B15F",
"x  c #5C9166",
"c  c #5E9569",
"v  c #5B9379",
"b  c #649665",
"n  c #699C66",
"m  c #63956B",
"M  c #639773",
"N  c #689F7F",
"B  c #6BA166",
"V  c #6EA36D",
"C  c #73A96E",
"Z  c #7DB461",
"A  c #7FB863",
"S  c #7DB96A",
"D  c #6FA674",
"F  c #70AE76",
"G  c #79B377",
"H  c #77B578",
"J  c #7AB67D",
"K  c #80B763",
"L  c #82BB65",
"P  c #80BA69",
"I  c #155681",
"U  c #1C5780",
"Y  c #165986",
"T  c #185986",
"R  c #1A5C8B",
"E  c #1F608D",
"W  c #1D6393",
"Q  c #1F699B",
"!  c #21628E",
"~  c #226491",
"^  c #286A96",
"/  c #206798",
"(  c #216B9C",
")  c #2B6C99",
"_  c #246FA2",
"`  c #2472A6",
"'  c #2675AA",
"]  c #2877AE",
"[  c #2A79AF",
"{  c #3376A2",
"}  c #3678A4",
"|  c #387CA7",
" . c #2779B0",
".. c #297BB3",
"X. c #2B7FB8",
"o. c #307EB2",
"O. c #3D80AB",
"+. c #2E84BE",
"@. c #3A8BB3",
"#. c #3084BE",
"$. c #3C8ABC",
"%. c #3F96BE",
"&. c #51958F",
"*. c #589E8D",
"=. c #478F99",
"-. c #4A9297",
";. c #4E969B",
":. c #529790",
">. c #549B91",
",. c #659D87",
"<. c #639E9A",
"1. c #5EA591",
"2. c #5BA598",
"3. c #6AA384",
"4. c #6EA987",
"5. c #65A78B",
"6. c #6FAA88",
"7. c #7AB681",
"8. c #75B28C",
"9. c #65A293",
"0. c #6BA690",
"q. c #67A39E",
"w. c #70AF9E",
"e. c #73B194",
"r. c #4184AF",
"t. c #4F9EA7",
"y. c #4392AE",
"u. c #4C9DAC",
"i. c #529EA6",
"p. c #5B9AA4",
"a. c #4589B3",
"s. c #498DB7",
"d. c #4495B0",
"f. c #4698B4",
"g. c #4297BB",
"h. c #4D9BB9",
"j. c #549EB5",
"k. c #589DB1",
"l. c #5195BF",
"z. c #57A1BE",
"x. c #66A6A3",
"c. c #6CABA4",
"v. c #66A5AA",
"b. c #69AAAB",
"n. c #64A4B3",
"m. c #68ABB7",
"M. c #66A9BE",
"N. c #2F86C1",
"B. c #3086C1",
"V. c #3189C5",
"C. c #348FCD",
"Z. c #3A92C6",
"A. c #3790CD",
"S. c #3A92CD",
"D. c #4291C6",
"F. c #4892C1",
"G. c #4C9AC7",
"H. c #4597CE",
"J. c #4699CE",
"K. c #4A9ACE",
"L. c #5297C1",
"P. c #559AC3",
"I. c #589CC6",
"U. c #539ECE",
"Y. c #54A0C5",
"T. c #56A0CE",
"R. c #5CA3CE",
"E. c #64A7C6",
"W. c #61A6CE",
/* pixels */
"L L L L L L L L L L L L L L L L L L L L L L L L L L L L L L L L L L L L J E.E.W.E.E.E.W.E.E.E.E.E.E.W.E.E.J P L L L L L L L L L L L L L L L L L L L L L L L L L L L L L L L L L L L ",
"L L L L L L L L L L L L L L L L L L L L L L L L L L L L L L L L L L P L J W.W.W.W.W.W.W.W.W.W.W.W.W.W.W.R.J L L L L L L L L L L L L L L L L L L L L L L L L L L L L L L L L L L L L ",
"L L L L L L L L L L L L L L L L L L L L L L L L L L L L L L L L L w.R.E.Y.A.S.S.A.A.A.A.A.A.A.A.A.A.A.A.S.R.W.W.4.P L L L L L L L L L L L L L L L L L L L L L L L L L L L L L L L L ",
"L L L L L L L L L L L L L L L L L L L L L L L L L L L L L L S P S w.W.W.T.C.C.C.V.C.C.V.C.C.C.C.C.C.C.C.C.T.W.W.,.P P P L L L L L L L L L L L L L L L L L L L L L L L L L L L L L L ",
"L L L L L L L L L L L L L L L L L L L L L L L L L L L L L P u.%.g.T.W.W.L./ W W W W E W W R W W W / V.C.C.S.S.S.Y.M.M.b.P L L L L L L L L L L L L L L L L L L L L L L L L L L L L L ",
"L L L L L L L L L L L L L L L L L L L L L L L L L L L L L S g.A.C.K.W.W.h.T T T T T Y T T T T T T W V.C.C.C.C.C.K.W.W.m.P L L L L L L L L L L L L L L L L L L L L L L L L L L L L L ",
"L L L L L L L L L L L L L L L L L L L L L L L L L L H Z.Z.Z.R.R.R.O.~ ! ! T T T T T T T T T Y T T T T W R E E R [ S.Z.J.E.E.M.J L L L L L L L L L L L L L L L L L L L L L L L L L L ",
"L L L L L L L L L L L L L L L L L L L L L L L L L L H Z.A.A.T.W.W.O.T T T T T T U T T T T T Y Y T T T T T T Y Y ' A.A.H.W.W.E.J L L L L L L L L L L L L L L L L L L L L L L L L L L ",
"L L L L L L L L L L L L L L L L L L L L L L L L L L F Z.C.A.U.W.W.O.T T T T T T 0 9 q 0 9 9 q q 0 q Y T T T T T ' A.C.S.W.R.E.J K L L L L L L L L L L L L L L L L L L L L L L L L L ",
"L L L L L L L L L L L L L L L L L L L L L L L L L K F Z.C.A.R.W.W.O.T T T T T Y 9 9 9 9 8 9 9 9 8 9 T T T T T T ' A.A.H.W.W.E.G K L L L L L L L L L L L L L L L L L L L L L L L L L ",
"L L L L L L L L L L L L L L L L L L L L L L L 5.f.f.h.U.T.U.{ ^ ) ^ T T I 9 0 0 9 9 9 9 8 9 9 9 8 9 9 0 0 I T T R W W ` H.S.J.z.M.m.7.L L L L L L L L L L L L L L L L L L L L L L L ",
"L L L L L L L L L L L L L L L L L L L L L L L 1.C.C.S.W.W.W.^ T Y T T T I 8 8 9 9 9 9 9 9 9 9 9 8 9 9 9 9 I T T Y Y T W C.A.S.R.W.W.8.L L L L L L L L L L L L L L L L L L L L L L L ",
"L L L L L L L L L L L L L L L L L L L L L L L 2.C.C.S.W.W.W.^ T Y T T T I 8 9 9 9 9 8 9 9 9 9 9 9 9 9 8 9 I T T T T T Q C.C.A.R.W.W.8.K L L L L L L L L L L L L L L L L L L L L L L ",
"L L L L L L L L L L L L L L L L L L L L L A Z 9.C.C.S.R.W.R.^ T T T T Y I 9 9 9 9 8 9 8 9 8 9 9 9 9 9 9 9 e T T T T T W C.C.A.T.W.W.8.Z L L L L L L L L L L L L L L L L L L L L L L ",
"L L L L L L L L L L L L L L L L L L L L 2.t.t.j.U.U.G.| } } E T T T T T I 9 9 9 9 9 9 Q ' ' W 9 9 9 9 9 9 I T T T T T R ( _ _ D.J.J.z.c.x.5.A L L L L L L L L L L L L L L L L L L L ",
"L L L L L L L L L L L L L L L L L L L L f.C.C.J.R.W.I.! T T T T T T T T e 9 9 9 9 8 9  .C.C.' 9 8 9 9 8 9 I T T T T T T Y T R +.C.S.U.W.W.v.K L L L L L L L L L L L L L L L L L L L ",
"L L L L L L L L L L L L L L L L L L K K u.A.C.J.W.W.I.E T T T T Y I q q q 9 9 q _ ' ` N.C.C.N.` ` ` ' ` ` I q q I Y T T T T R N.C.C.U.W.W.n.Z Z P L L L L L L L L L L L L L L L L L ",
"L L L L L L L L L L L L L L L L L L K K d.A.A.J.W.W.I.R T T T T Y q 9 9 9 9 9 e N.C.C.C.C.C.C.C.C.C.C.A.A.Y 9 9 q Y T T T T T N.C.C.U.W.W.b.Z Z L L L L L L L L L L L L L L L L L L ",
"L L L L L L L L L L L L L L L L L L K K d.A.C.J.W.W.P.E T T T T Y q 9 9 I ` ` ' V.C.C.) T U T U U ~ V.C.C.Y 9 9 e Y T T T T R B.C.C.U.W.W.b.Z Z L L L L L L L L L L L L L L L L L L ",
"L L L L L L L L L L L L L L L L L L K z d.C.C.J.W.W.P.E T T T T T e 9 9 Y C.C.C.C.C.C.r : : : : : 4 V.C.C.Y 9 9 e Y T T T T R B.C.C.U.W.W.b.Z Z A L L L L L L L L L L L L L L L L L ",
"L L L L L L L L L L L L L L L L L K Z k d.A.C.J.W.W.I.E T T T T T / ` _ ' A.A.V.E T T 5 : : : : : < W ( ( ' ` ` W T T T T T R N.C.C.T.W.W.v.Z Z A L L L L L L L L L L L L L L L L L ",
"L L L L L L L L L L L L L L L L L K Z j d.A.A.J.W.W.P.E T T T T T ] C.C.C.A.C.N.3 : : : : : : : : , 7 8 9 +.C.C.' T T T T T T N.C.C.U.W.R.v.j Z Z L L L L L L L L L L L L L L L L L ",
"L L L L L L L L L L L L L L L L L K Z k z.K.K.F.| O.| R T T T T T ] C.C.B.( ( / 2 : : : : : : : : , 7 9 9 +.V.C.' T T T T T T _ ' _ D.K.K.I.w.w.e.L L L L L L L L L L L L L L L L L ",
"L L L L L L L L L L L L L L L L L L Z k v.W.R.a.T T T T T T T T Y  .C.C.+.9 8 8 : : : : : : : : : , 7 9 9 +.A.C.' T T T T T T T T T ] C.C.K.W.W.E.L L L L L L L L L L L L L L L L L ",
"L L L L L L L L L L L L L L L L L 5.1.1.E.W.W.a.T T T T Y T e e e ' C.C.+.9 9 7 > : : : : : : : : > 7 9 9 Q ' ` W I e I Y T T T T T ..C.C.H.W.R.m.L L L L L L L L L L L L L L L L L ",
"L L L L L L L L L L L L L L L L A @.C.A.T.W.R.a.T T T T T Y 0 9 9 ` C.C.X.9 9 7 > : : : : : : : : > 7 9 9 9 9 9 9 9 9 q T T T T T T ..C.C.H.W.W.M.L L L L L L L L L L L L L L L L L ",
"L L L L L L L L L L L L L L L L A @.C.C.T.W.W.a.T T T T Y Y W W W Q ' ' _ 9 9 7 > : : : # # # : : > 7 9 9 9 9 9 9 9 9 9 T T T T T T ..C.C.H.W.W.M.K L L L L L L L L L L L L L L L L ",
"L L L L L L L L L L L L L L L L Z @.A.C.T.R.W.a.T T T T Y R +.A.C._ 9 9 9 9 9 7 > : : @ o o O : : > 7 9 9 9 9 8 9 9 9 9 T T T T T T ..C.C.H.W.W.M.k L L L L L L L L L L L L L L L L ",
"L L L L L L L L L L L L L L L L l @.C.A.T.R.W.a.T T T T T R N.A.C.( 9 9 7 4 4 4 : : : O o o O : > > 1 4 4 8 9 9 9 9 9 9 T T T T T T ..C.C.H.W.W.M.j z K L L L L L L L L L L L L L L ",
"L L L L L L L L L L L L L L L L d @.C.C.T.W.W.a.T T T T T R +.A.C.Q 9 9 6 : : : : : : O o O O : : : : : > 4 9 9 9 9 9 0 T T T T T T ..C.C.K.W.W.M.j z K L L L L L L L L L L L L L L ",
"L L L L L L L L L L L L L L L L d @.C.C.T.W.W.a.T T T T T T ' X...W 9 9 4 : : : # # # O o o O # # # : : : 4 9 9 8 9 8 0 T T T T T T ..C.C.H.W.W.m.j z K L L L L L L L L L L L L L L ",
"L L L L L L L L L L L L L L L L h @.C.A.T.R.W.s.T T T T T T 9 9 9 9 9 9 6 : : : o o o o o o o o o o : : > 4 8 8 9 9 8 9 T T T Y T T  .C.C.H.W.W.M.j z K L L L L L L L L L L L L L L ",
"L L L L L L L L L L L L L L Z Z j @.C.C.T.W.W.a.T T R / ( Q q 8 9 9 9 9 6 : : # o o o o o o o o o o @ # : 6 9 9 I R R R Y Y Y Y T T ..C.C.H.W.W.E.j Z K L L L L L L L L L L L L L L ",
"L L L L L L L L L L L L L L K Z j $.C.C.T.R.R.a.T T W C.C.C.Y 8 9 9 9 9 6 : : : o o o o o o o o o o : : : 6 9 9 ` C.C.+.Y Y T Y T T  .C.C.H.W.W.E.k Z K L L L L L L L L L L L L L L ",
"L L L L L L L L L L L L L L K Z j @.A.C.T.W.W.a.T T W C.C.V.Y 8 9 9 9 9 6 : : : o o o o o o o o o + # : : 6 8 9 Q +.+.X./ Q Q T T T ..C.C.H.R.W.M.k k K L L L L L L L L L L L L L L ",
"L L L L L L L L L L L L L L Z Z j @.A.A.T.W.W.a.T T W V.C.C.Y 8 9 9 9 9 6 : : # o o o o o o o o o + : : : 6 9 9 7 9 7 Y C.C.V.W T Y ..C.C.H.R.W.M.h Z K L L L L L L L L L L L L L L ",
"L L L L L L L L L L L L L L L Z j @.C.C.T.W.W.a.T T W +.V.B.Y 8 7 9 9 9 6 : : : o o o o o o o o o o : : : 6 8 9 9 9 9 Y C.C.C.W T T ..C.A.H.W.W.M.h k K L L L L L L L L L L L L L L ",
"L L L L L L L L L L L L L L Z Z j @.C.C.T.W.W.a.T T T T T T 9 8 9 9 9 9 6 : : # o o o o o o o o o + : : : 6 9 9 9 9 9 R C.C.V.W T T ..C.A.H.W.W.M.j Z K L L L L L L L L L L L L L L ",
"L L L L L L L L L L L L L L Z Z B @.C.C.T.W.W.a.T T T T T T e q q 9 9 9 6 : : : o o o o o o o o o o : : : 6 8 9 9 8 9 Y C.C.C.W T T X.C.C.H.W.W.M.j Z K L L L L L L L L L L L L L L ",
"L L L L L L L L L L L L L L K Z k @.C.C.T.W.W.a.T T T T T R B.C.C.( 9 9 6 : : : o o o o o o o o o o : : : 6 9 8 9 9 9 R C.C.V.W T R ..A.C.H.W.W.M.h k K L L L L L L L L L L L L L L ",
"L L L L L L L L L L L L L L Z Z j @.C.C.U.W.W.a.T T T T T R N.C.C.( 9 9 6 : : : + o o o o o o o o O : : > 4 9 9 9 9 9 Y C.C.V.W T T ..C.C.H.W.W.M.j Z K L L L L L L L L L L L L L L ",
"L L L L L L L L L L L L L L Z Z j @.C.C.R.W.W.a.T T Y T T R B.C.C._ 9 9 6 : : # + o o o o o o o o O : : > 4 9 9 9 8 9 Y C.C.C.W T T ..C.C.H.W.R.M.j z K L L L L L L L L L L L L L L ",
"L L L L L L L L L L L L L L Z Z j @.C.C.U.W.W.a.T T T T T R B.C.C._ 9 9 6 : : : + o o o o o o + o o : : : 4 9 9 9 8 9 Y C.C.V.W T T ..C.C.H.W.W.M.j k K L L L L L L L L L L L L L L ",
"L L L L L L L L L L L L L L L Z j a.C.C.U.W.W.a.T T T T T R N.C.C.Q 9 9 6 : : : : : : + o o @ : : : : > > 4 9 9 9 9 9 Y C.C.C.W T T ..C.C.H.W.W.M.j Z K L L L L L L L L L L L L L L ",
"L L L L L L L L L L L L L L Z k j @.C.C.R.W.W.a.T T T T T R N.C.C.` q q 8 > : : : : : + o o @ : : : > > > 4 9 9 9 9 9 Y C.C.C.W T T ..C.C.H.W.W.M.j K K L L L L L L L L L L L L L L ",
"L L L L L L L L L L L L L L L Z j $.C.C.U.W.W.a.T T T T T R N.C.C.C.V.V...8 7 6 > : : @ o o @ : : > 4 4 9 4 9 9 9 9 9 Y C.C.C.W T T ..C.C.H.W.W.M.j k K L L L L L L L L L L L L L L ",
"L L L L L L L L L L L L L L L Z j @.C.C.T.W.W.a.T T T T T R N.C.C.C.C.C.+.0 9 7 > : : @ o o @ > > < 4 I 9 9 9 9 9 9 9 Y C.C.V.W T T  .C.C.K.W.W.M.j k K L L L L L L L L L L L L L L ",
"L L L L L L L L L L L L L L Z Z j @.C.C.T.W.W.a.T T T T T T q q q  .C.C.C.N.N.+.< : : : # : r +.+. .I 4 9 9 9 9 9 9 9 Y C.C.C.W T T ..C.C.H.W.E.M.j k K L L L L L L L L L L L L L L ",
"L L L L L L L L L L L L L L L L j @.C.C.U.W.W.a.T T T T T T 0 9 9 Q C.C.C.C.C.N.3 : : : : : T C.C.X.I 4 q 9 9 9 9 9 9 Y C.C.V.W T T ] C.C.H.W.W.E.j z K L L L L L L L L L L L L L L ",
"L L L L L L L L L L L L L L K K j B n b n.W.W.a.T T T T T T Y U Y I I I W C.C.C.B.B.B.#.#.#./ 2 1 1 4 9 4 I 9 9 Q V.V.X.W W W Y T T ..C.C.H.W.W.M.j z K L L L L L L L L L L L L L L ",
"L L L L L L L L L L L L L L K z j g i u k.W.W.a.T T T T T T T T Y q 9 9 Y C.C.C.C.C.C.C.C.C./ : > , 9 I 9 4 4 I ` C.C.X.Y Y Y Y T T  .C.C.H.W.W.M.j z K L L L L L L L L L L L L L L ",
"L L L L L L L L L L L L L L K K k h p i y.D.S.K.I.I.l.R T T T T Y q 9 q 4 I I R V.C.A.T 3 3 1 : : 1 4 4 9 9 q 4 ` C.C.N.R Y Y X.B.B.K.R.R.n.V V C j z K L L L L L L L L L L L L L L ",
"L L L L L L L L L L L L L L L K k j p p y.C.S.J.W.W.I.R T T T T Y q 9 9 9 4 I I B.A.C.w : : : : : > I 4 I 4 4 I _ C.C.N.R T R N.C.C.U.W.W.v.t u g j K K K L L L L L L L L L L L L L ",
"L L L L L L L L L L L L L L K K Z j j p y.C.C.J.W.W.I.E T T T T Y q 9 9 9 q 4 q 4 w 4 2 : : : : > > 4 4 9  .X.X.' / / W Y Y R N.C.C.U.W.W.v.u p g k k K L L L L L L L L L L L L L L ",
"L L L L L L L L L L L L L L L K Z Z Z h y.C.C.J.W.W.I.E T T T T T q 9 9 q 4 4 e > > > : : : > , : , 4 I I X.C.C.' T T T T T R N.C.C.U.W.W.v.p s h j K K K L L L L L L L L L L L L L ",
"L L L L L L L L L L L L L L L L Z Z Z h d.C.C.J.W.W.P.R T T T T T ` N.N.X.4 I 4 4 4 4 < : : < 4 4 4 I 4 4 I Y Y R T T T T T R N.C.C.U.W.W.v.p h k K K K L L L L L L L L L L L L L L ",
"L L L L L L L L L L L L L L L L L K Z k d.C.A.J.W.W.I.E T T T T T ] C.C.X.9 9 4 4 q 9 < > : < 4 9 9 9 9 q 4 q 4 q T T T T T R N.C.C.U.W.W.v.g k L L L L L L L L L L L L L L L L L L ",
"L L L L L L L L L L L L L L L L L L Z k d.C.C.K.W.W.L.E T T T T T W ( ( ` X.X. .I q 9 < : : I  . .` q q 4 I I I I T T T Y T R N.C.C.U.W.W.v.h k L L L L L L L L L L L L L L L L L L ",
"L L L L L L L L L L L L L L L L L K Z j d.C.C.K.W.W.L.E T T T T T T T T W C.C.V.I 4 9 < : : I C.C.N.q 4 I I T T T T T T T T R N.C.C.U.W.W.v.k Z L L L L L L L L L L L L L L L L L L ",
"L L L L L L L L L L L L L L L L K K Z k M *.v i.H.H.H.F.s.s.~ T T T Y T Y W W W '  . .' _ _ ( W W R q q 4 I T T T T T W ......H.U.U.x.N 3.D k Z L L L L L L L L L L L L L L L L L L ",
"L L L L L L L L L L L L L L L L L L Z k h p u *.A.C.H.R.W.R.^ U T T T T Y 9 9 q N.C.C.C.C.C. .9 4 9 9 9 q I R T T T T W C.C.C.T.W.W.6.y i g k Z K L L L L L L L L L L L L L L L L L ",
"L L L L L L L L L L L L L L L L L K K k h p u >.C.C.H.R.W.R.^ U T T T T I 9 9 9 R W W W W W Y q q 9 9 9 4 I T T T T T W C.C.A.R.W.W.6.i p g k Z L L L L L L L L L L L L L L L L L L ",
"L L L L L L L L L L L L L L L L P K Z Z j g i ,.A.V.A.R.W.W./ T T T T T I 9 9 9 9 9 9 9 9 9 9 4 9 q 9 9 4 T T T T T T W C.C.A.R.W.W.6.i s j l Z L L L L L L L L L L L L L L L L L L ",
"L L L L L L L L L L L L L L L L K K K Z Z h g M &.=.p.H.K.K.$.r.r._ Y Y Y e e e 9 9 9 9 9 9 9 9 9 4 I I I T T T / ] ' o.K.U.U.p.,.9.F s h k Z A L L L L L L L L L L L L L L L L L L ",
"L L L L L L L L L L L L L L L L L L L L z k h p i y x Z.A.A.T.W.W.r.T T T T T T 8 0 8 8 8 8 9 9 9 0 I T T T T T ' C.C.S.W.W.W.n u u p j j Z K K L L L L L L L L L L L L L L L L L L ",
"L L L L L L L L L L L L L L L L L L L L K z j g p u c Z.C.A.R.W.W.| T T T T T T q q q q q I q q q I T T T T T T ' C.C.D.W.W.E.m u p s j k K K L L L L L L L L L L L L L L L L L L L ",
"L L L L L L L L L L L L L L L L L L L L K K k j g i b Z.A.S.T.W.W.| T R T T T T T T R T T T T T T T T T T T T T ' C.C.H.W.W.E.n p s h k K K L L L L L L L L L L L L L L L L L L L L ",
"L L L L L L L L L L L L L L L L L L L L L K z l j g a :.-.;.G.K.U.F.O.| } T T T T T T T T T T T T R _ ' ' ` ` ` $.K.K.I.q.9.9.n g h k K K L L L L L L L L L L L L L L L L L L L L L ",
"L L L L L L L L L L L L L L L L L L L L L L L K k j g i y a g.A.C.U.W.W.L.R T T T T T T T T T T T W C.C.C.C.C.C.K.W.R.m.a u p p h k Z Z K L L L L z A z L L L L L L L L L L L L L L ",
"L L L L L L L L L L L L L L L L L L L L L L L L Z k h p i p >.;.;.h.K.U.D._ _ _ _ _ _ ` ` _ _ _ _ ` C.C.C.H.H.H.k.q.x.0.p i p h k Z K L K L L L L f f d L L L L L L L L L L L L L L ",
"L L L L L L L L L L L L L L L L L L L L L L L L Z Z j h p i y y t ;.C.A.A.C.C.C.C.C.C.C.C.C.C.C.C.C.A.C.A.T.R.W.M t y y i p g j Z Z L L L L L L L f d d L L L L L A L L L L L L L L ",
"L L L L L L L L L L L L L L L L L L L L L L L L Z Z k j d p i u t v =.=.y.K.K.K.K.K.K.J.K.K.H.K.H.H.K.H.J.p.<.q.M t u i s g h Z Z L L L Z Z Z L L f d f L L L A A A L L L L L L L L ",
"L L L L L L L L L L L L L L L L L L L L L L f d s Z Z Z j g p p i u u t m W.W.W.W.W.W.W.W.W.W.W.W.W.W.W.W.m t t u i i p g k Z Z Z L L j d d Z L L f d d L L A d f l L L L L L L L L ",
"L L L L L L L L L L L L L L L L L L L L L L j d d Z L Z Z j j g p i u u b v.v.v.v.v.v.v.v.v.v.v.n.v.v.v.v.m t i p p h j j Z Z Z L L A Z d d Z S L d d d L L A d f z L L L L L L L L ",
"L L L L L L L L L L L L L L L L A l l L L L j d d Z L L j j j k h p p p u u t t t t t t t t t t t t y y u u p p h h k k Z Z K L L L A Z l j l Z l l l l l l l l l l L L L L L L L L ",
"L L L L L L L L L L L L L L L L l f d l L L f f d A L A d d p Z Z j h g p i u u t y u y y y u u u t u u i p h p j k k K K L L L L L L L L L f d d A L A d d l L L L L L L L L L L L ",
"L L L L L L L L L L L L L L L L A d d l A S f f d L S Z d d f Z K Z k h h g p p p i p i i i p i i i i p g h h Z Z K K K L L L L L L L L L L j d d A P L d d l z L L L L L L L L L L ",
"L L L L L L L L L L L L L L L L A l l z l l z l j l l Z Z j Z P K K K Z Z j h p g g g g g g g g g g h h h Z Z Z K K L L L L L L L L L L L L A l l l l l l l l L L L L L L L L L L L ",
"L L L L L L L L L L L L L L L L L L L l d d A L L j d f L L A L K L K K Z Z Z j j j k k k j j j k h k h Z Z K K K L K L L L L L L L L L L L L L A d d d L L L L L L L L L L L L L L ",
"L L L L L L L L L L L L L L L L L A A l d d A L A d d j L L L L P K K K K Z Z Z Z Z Z Z Z Z Z Z K K K K Z K K K K L L L L L L L L L L L L L L L L j d d L L L L L L L L L L L L L L ",
"L L L L L L L L L L L L L L L L L L L z l z l l l l z A L L L L L L L L L L L L K K K K L L Z L L L K L L L L L L L L L L L L L L L L L L L L L L A S L L L L L L L L L L L L L L L ",
"L L L L L L L L L L L L L L L L L L L L L L l d d z L L L L L L L L L L L L L L L L L L L L L L L L L L L L L L L L L L L L L L L L L L L L L L L L L L L L L L L L L L L L L L L L ",
"L L L L L L L L L L L L L L L L L L L L L L l f d A L L L L L L L L L L L L L L L L L L L L L L L L L L L L L L L L L L L L L L L L L L L L L L L L L L L L L L L L L L L L L L L L ",
"L L L L L L L L L L L L L L L L L L L L L L z L A L L L L L L L L L L L L L h i i i i i i i i i i i i h L L L L L L L L L L L L L L L L L L L L L L L L L L L L L L L L L L L L L L ",
"L L L L L L L L L L L L L L L L L L L L L L L L L L L L L L L L L L L L L P & . . .   . . .   . . . . = L L L L L K L L L L L L L L L L L L L L L L L L L L L L L L L L L L L L L L ",
"L L L L L L L L L L L L L L L L L L L L L L L L L L L L A z z z Z z k Z Z Z %                         * Z k Z k Z Z Z Z Z K L L L L L L L L L L L L L L L L L L L L L L L L L L L L ",
"L L L L L L L L L L L L L L L L L L L L L L L L L L L L -                                                                 ; K L L L L L L L L L L L L L L L L L L L L L L L L L L L ",
"L L L L L L L L L L L L L L L L L L L L L L L L L L K A - X X X X X X X X X                           . X X X X X X X X X ; L P L L L L L L L L L L L L L L L L L L L L L L L L L L ",
"L L L L L L L L L L L L L L L L L L L L L L L L L L L A z j h h h g h g g g $                         * p g h h h h h h h Z Z K L L L L L L L L L L L L L L L L L L L L L L L L L L ",
"L L L L L P L L L L L L L L L L L L L L L L L L L L S Z z z k j j j j j j g $                         * g j j j Z K Z j j Z Z K L L L L L L L L L L L L L L L L L L L L L L L L L L "
};
