/* XPM */
static char *result[] = {
/* columns rows colors chars-per-pixel */
"90 90 149 2 ",
"   c #010100",
".  c #050804",
"X  c #080C07",
"o  c #0E1C2B",
"O  c #0D1F30",
"+  c #0D202F",
"@  c #0D2133",
"#  c #0B263B",
"$  c #2B3E22",
"%  c #2F4324",
"&  c #304626",
"*  c #364E2B",
"=  c #3B552E",
"-  c #415D32",
";  c #476637",
":  c #4A6B39",
">  c #0A2B43",
",  c #0A2F49",
"<  c #0A304B",
"1  c #0C3552",
"2  c #0D3B5B",
"3  c #103855",
"4  c #123C5B",
"5  c #0C3F60",
"6  c #0C4265",
"7  c #0D466B",
"8  c #0D486F",
"9  c #15476A",
"0  c #0D4970",
"q  c #104D76",
"w  c #104F78",
"e  c #1A5077",
"r  c #12517B",
"t  c #1C537A",
"y  c #699752",
"u  c #6DA558",
"i  c #6FA859",
"p  c #73A65A",
"a  c #74AC5C",
"s  c #7AAF5E",
"d  c #77B05E",
"f  c #78B15F",
"g  c #7CB461",
"h  c #7FB863",
"j  c #7BB76E",
"k  c #7EB96A",
"l  c #72AC7F",
"z  c #74B377",
"x  c #7BB674",
"c  c #7DB974",
"v  c #73B278",
"b  c #7BB77B",
"n  c #82BB65",
"m  c #80BA69",
"M  c #155681",
"N  c #1C5780",
"B  c #165986",
"V  c #185986",
"C  c #1A5C8B",
"Z  c #1F608D",
"A  c #1D6393",
"S  c #1F699B",
"D  c #21628E",
"F  c #226491",
"G  c #286A96",
"H  c #206798",
"J  c #216B9C",
"K  c #2B6C99",
"L  c #246FA2",
"P  c #2472A6",
"I  c #2675AA",
"U  c #2877AE",
"Y  c #2A79AF",
"T  c #3376A2",
"R  c #3678A4",
"E  c #387CA7",
"W  c #2779B0",
"Q  c #297BB3",
"!  c #2B7FB8",
"~  c #307EB2",
"^  c #3D80AB",
"/  c #2E84BE",
"(  c #3A8BB3",
")  c #3084BE",
"_  c #3A87B9",
"`  c #3E8CBF",
"'  c #3F96BE",
"]  c #659D84",
"[  c #5CA697",
"{  c #57A29F",
"}  c #5AA499",
"|  c #6AA487",
" . c #6AAD85",
".. c #63A78A",
"X. c #68A58B",
"o. c #66AB89",
"O. c #79B580",
"+. c #76B38C",
"@. c #60A892",
"#. c #70AF9E",
"$. c #73B295",
"%. c #71B09B",
"&. c #4184AF",
"*. c #4C9DAC",
"=. c #509FA7",
"-. c #4589B3",
";. c #488CB6",
":. c #4A8EB8",
">. c #4598B6",
",. c #499AB3",
"<. c #4297BB",
"1. c #4A90BC",
"2. c #4C9CB8",
"3. c #5195BF",
"4. c #519FBB",
"5. c #55A1A3",
"6. c #5AA2B3",
"7. c #58A2BE",
"8. c #65A5A5",
"9. c #6DAEA4",
"0. c #65A5AA",
"q. c #65A9AB",
"w. c #6BACAD",
"e. c #65A9B0",
"r. c #68ABB6",
"t. c #61A7BC",
"y. c #66A9BE",
"u. c #2F86C1",
"i. c #3086C1",
"p. c #3189C5",
"a. c #348FCD",
"s. c #3A92C6",
"d. c #3790CD",
"f. c #3A92CD",
"g. c #4291C6",
"h. c #4892C1",
"j. c #4C9AC7",
"k. c #4597CE",
"l. c #4699CE",
"z. c #4A9ACE",
"x. c #5297C1",
"c. c #559AC3",
"v. c #589CC6",
"b. c #539ECE",
"n. c #54A0C5",
"m. c #56A0CE",
"M. c #5CA3CE",
"N. c #64A7C6",
"B. c #61A6CE",
/* pixels */
"n n n n n n n n n n n n n n n n n n n n n n n n n n n n n n n n n n n n b B.N.N.N.N.N.B.N.B.N.N.N.N.N.B.N.b m n n n n n n n n n n n n n n n n n n n n n n n n n n n n n n n n n n n ",
"n n n n n n n n n n n n n n n n n n n n n n n n n n n n n n n n n n n n O.B.B.B.B.B.B.B.B.B.B.B.B.B.B.B.B.b n n n n n n n n n n n n n n n n n n n n n n n n n n n n n n n n n n n n ",
"n n n n n n n n n n n n n n n n n n n n n n n n n n n n n n n n n %.B.B.n.d.d.d.d.d.d.a.d.s.d.a.d.d.d.d.f.M.B.B.| m n n n n n n n n n n n n n n n n n n n n n n n n n n n n n n n n ",
"n n n n n n n n n n n n n n n n n n n n n n n n n n n n n n k k k 9.B.B.M.d.p.d.p.a.a.a.a.a.a.a.a.a.d.a.a.b.B.B.] m m m n n n n n n n n n n n n n n n n n n n n n n n n n n n n n n ",
"n n n n n n n n n n n n n n n n n n n n n n n n n n n n n k *.<.g.n.B.B.x.A A Z Z Z A Z C A A Z A S p.a.a.d.f.f.n.y.y.w.m n n n n n n n n n n n n n n n n n n n n n n n n n n n n n ",
"n n n n n n n n n n n n n n n n n n n n n n n n n n n n n k <.d.d.z.B.B.3.C V B V V V V V V B B V Z a.a.a.a.a.d.z.B.B.r.m n n n n n n n n n n n n n n n n n n n n n n n n n n n n n ",
"n n n n n n n n n n n n n n n n n n n n n n n n n n z g.s.s.n.M.M.( F F D V V V V V V V V V B B V V C C C C Z Z Q d.d.l.N.N.y.c n n n n n n n n n n n n n n n n n n n n n n n n n n ",
"n n n n n n n n n n n n n n n n n n n n n n n n n n z s.d.d.M.B.B.^ V V V V V V V V V V V V B B V V B V B B B B I d.a.k.B.B.N.b n n n n n n n n n n n n n n n n n n n n n n n n n n ",
"n n n n n n n n n n n n n n n n n n n n n n n n n n z d.a.d.M.B.B.^ V V B V V V q 0 q q 0 w 0 w q w V V V V V V I a.a.f.B.B.N.b n n n n n n n n n n n n n n n n n n n n n n n n n n ",
"n n n n n n n n n n n n n n n n n n n n n n n n n n z d.a.d.M.B.B.^ V V B B V V 0 8 0 0 0 0 0 0 8 0 V V V V V V I d.a.k.B.B.N.b n m n n n n n n n n n n n n n n n n n n n n n n n n ",
"n n n n n n n n n n n n n n n n n n n n n n n ..>.>.2.M.M.b.T K K D V V M q q q 0 0 0 0 0 0 0 0 8 8 0 q 0 V V V C A H P f.f.k.t.r.r.b n n n n n n n n n n n n n n n n n n n n n n n ",
"n n n n n n n n n n n n n n n n n n n n n n n @.a.a.f.B.B.v.G V V V V V M 8 8 0 0 0 0 8 0 0 0 0 0 0 0 0 0 M V V V V V A a.d.d.M.B.B.+.n n n n n n n n n n n n n n n n n n n n n n n ",
"n n n n n n n n n n n n n n n n n n n n n n n @.a.a.f.B.B.M.G V V V V V M 0 8 0 0 8 0 0 8 0 0 0 0 0 0 0 8 M B V V V V H a.a.s.M.B.B.$.n n n n n n n n n n n n n n n n n n n n n n n ",
"n n n n n n n n n n n n n n n n n n n n n n n @.a.a.f.M.B.M.G V V V V V M 8 0 0 0 0 8 0 0 0 0 0 8 0 0 8 8 M V V V V V A a.a.d.M.M.N.+.n n n n n n n n n n n n n n n n n n n n n n n ",
"n n n n n n n n n n n n n n n n n n n n [ =.=.4.b.b.j.E R R Z V V V V V r 8 0 0 0 0 8 S I I A 0 0 0 0 0 0 M V V V V V C J L L f.l.l.t.w.8.X.g n n n n n n n n n n n n n n n n n n n ",
"n n n n n n n n n n n n n n n n n n n n ,.a.a.l.B.B.c.Z V V V V V V V V V 8 0 8 8 0 0 W d.a.I 0 0 0 0 0 8 M V V V V V V V V C ) a.a.b.B.B.0.g n n n n n n n n n n n n n n n n n n n ",
"n n n n n n n n n n n n n n n n n n n n ,.d.d.l.B.B.c.Z V V V V B r r w 0 8 8 r P P P u.a.a.u.P P P P P P B w w B M V V V V C / a.a.b.B.B.0.d n n n n n n n n n n n n n n n n n n n ",
"n n n n n n n n n n n n n n n n n n n n ,.d.a.l.B.B.c.Z V V V V B r 0 0 0 0 0 r u.a.a.a.a.a.a.a.a.a.a.a.d.B 0 0 r B V V V V C / a.d.b.M.B.r.n n n n n n n n n n n n n n n n n n n n ",
"n n n n n n n n n n n n n n n n n n n n ,.a.a.l.B.B.c.Z V V V V B r 0 0 M I P I a.a.a.K V N V N N A a.a.a.B 0 8 r B B V V V C i.a.a.m.B.B.w.n n n n n n n n n n n n n n n n n n n n ",
"n n n n n n n n n n n n n n n n n n n n ,.a.d.l.B.B.c.Z V V V V B r 0 0 B d.a.a.a.a.a.e > > > > > 4 p.a.a.B 0 8 r B V V V V C / a.a.m.B.B.r.n n n n n n n n n n n n n n n n n n n n ",
"n n n n n n n n n n n n n n n n n n n n ,.a.a.l.B.B.v.Z V V V V B H L P I d.a.p.C V N 9 > > > > > 1 A J J I L L A V V V V V C i.a.a.b.B.B.w.n n n n n n n n n n n n n n n n n n n n ",
"n n n n n n n n n n n n n n n n n n n n ,.a.a.l.B.B.v.Z V V V V B U a.a.a.a.a.u.4 > > # > > > > > < 7 8 0 / a.a.I B V V V V C u.a.d.b.B.B.r.n n n n n n n n n n n n n n n n n n n n ",
"n n n n n n n n n n n n n n n n n n n n 6.z.z.h.^ E E C V V B B V U a.a.u.L J A 3 > > > > > > > > < 7 0 0 / a.a.I V V V V V C J P P s.l.z.7.9.#.$.n n n n n n n n n n n n n n n n n ",
"n n n n n n n n n n n n n n n n n n n n r.B.B.-.V V V V V V B B V U a.a./ 0 0 7 , > > > > > > > > < 7 8 0 / a.a.I V V V V V V V V V Y d.d.l.B.B.r.n n n n n n n n n n n n n n n n n ",
"n n n n n n n n n n n n n n n n n o.@.@.N.B.B.-.B V B V B V t M r I a.a./ 0 0 7 , > > > > > > > > < 7 0 0 S P I A r r M V V V V V V Q a.a.k.B.B.y.n n n n n n n n n n n n n n n n n ",
"n n n n n n n n n n n n n n n n n ( d.d.m.B.B.-.B V B V B V 0 0 0 P d.d.Q 0 0 7 , > > > > > > > > < 7 0 0 0 0 0 0 0 0 q V V V V V V W a.a.k.B.B.y.n n n n n n n n n n n n n n n n n ",
"n n n n n n n n n n n n n n n n m ( a.a.m.M.B.-.V V V V V B A A A S W I L 0 0 7 , > > > # # # > > < 7 0 0 0 0 0 0 0 0 w V V V V V V Q a.a.k.M.B.y.n n n n n n n n n n n n n n n n n ",
"n n n n n n n n n n n n n n n n n ( a.a.m.B.B.-.V C V B V C / a.a.J 0 0 0 0 0 7 , > > @ o o O > > < 7 0 0 0 0 0 0 0 0 0 V V V V V V Q a.a.l.B.B.y.n n n n n n n n n n n n n n n n n ",
"n n n n n n n n n n n n n n n n h ( a.a.m.M.B.-.V V V V V C ) a.a.S 0 8 8 5 5 2 , > > O o o O > > , 2 5 5 0 0 0 0 8 8 q V V V V V V Q a.a.l.B.B.y.n n n n n n n n n n n n n n n n n ",
"n n n n n n n n n n n n n n n n g ( a.a.m.B.B.-.V V V V V C ) a.a.S 0 0 6 > > > > > > O o o O > > > > > > 5 0 0 0 0 8 q V V V V V V Q a.a.l.B.B.y.n n n n n n n n n n n n n n n n n ",
"n n n n n n n n n n n n n n n n g ( a.a.m.B.B.-.V V V V V C P Q Q S 0 0 6 > > > # # # O o o o # # > > > > 6 0 0 0 0 8 0 V V V V V V Q d.a.l.B.B.y.n n n n n n n n n n n n n n n n n ",
"n n n n n n n n n n n n n n n n g ( a.a.m.M.B.;.V V V V V V q 8 0 0 0 8 6 > > > o o o o o o o o o o > > > 5 0 0 0 0 8 q M V V V V V Q a.a.l.B.B.y.n n n n n n n n n n n n n n n n n ",
"n n n n n n n n n n n n n n n n m _ a.a.m.B.B.-.V V C H S S w 0 0 0 0 0 6 > > # o o o o o o o o o o @ # > 6 0 0 M C C C B B B B V V W a.a.k.B.B.N.n n n n n n n n n n n n n n n n n ",
"n n n n n n n n n n n n n n n n m _ a.a.m.B.B.-.V V A a.a.a.B 0 0 0 0 0 6 > > > o o o o o o o o o o > > > 5 0 0 P a.a./ B B B B V V Q a.a.k.B.B.N.n n n n n n n n n n n n n n n n n ",
"n n n n n n n n n n n n n n n n n ( a.a.m.B.B.-.V V A p.a.a.M 0 0 0 0 8 6 > > # o o o o o o o o o + > > > 6 0 0 S / / Q H A S V V V Q a.a.k.B.B.N.n n n n n n n n n n n n n n n n n ",
"n n n n n n n n n n n n n n n n n ( a.a.m.B.B.-.V V A a.a.p.V 0 0 8 0 0 6 > > > o o o o o o o o o + # > > 6 0 0 8 0 8 B d.a.a.A V V Q a.a.k.B.B.y.n n n n n n n n n n n n n n n n n ",
"n n n n n n n n n n n n n n n n n ( d.d.m.B.B.-.V V Z u.p.i.M 8 0 0 0 0 6 > > # o o o o o o o o o + # > > 6 0 0 0 0 0 B a.a.a.A V V W a.d.k.B.B.y.n n n n n n n n n n n n n n n n n ",
"n n n n n n n n n n n n n n n n n ( d.d.m.B.B.-.V V V V V V q 0 0 0 0 0 6 > > > o o o o o o o o o o > > > 6 0 0 0 0 0 B a.a.p.A V V Q a.d.k.B.B.y.n n n n n n n n n n n n n n n n n ",
"n n n n n n n n n n n n n n n n k ( a.a.m.B.M.-.V V V V V V w w w w 0 0 6 > > > o o o o o o o o o + > > > 6 0 0 0 0 0 B a.a.a.A V V Q a.a.k.B.B.y.n n n n n n n n n n n n n n n n n ",
"n n n n n n n n n n n n n n n n n ( a.a.m.B.B.-.V V V V V C i.a.a.S 0 0 6 > > # o o o o o o o o o o > > > 6 0 0 0 0 0 C a.a.p.A V C Q a.a.k.B.B.y.n n n n n n n n n n n n n n n n n ",
"n n n n n n n n n n n n n n n n n ( a.a.m.B.B.-.V V V V V C u.a.a.L 0 0 6 > > > + o o o o o o o o O > > , 5 0 0 0 0 0 B a.a.p.A V V Q a.a.k.B.B.y.n n n n n n n n n n n n n n n n n ",
"n n n n n n n n n n n n n n n n n ( a.a.m.B.B.-.V V V V V C u.a.a.S 0 0 6 > > # + o o o o o o o o O > > , 5 0 0 0 0 0 B a.a.a.A V V Q a.a.k.B.B.y.n n n n n n n n n n n n n n n n n ",
"n n n n n n n n n n n n n n n n n ( d.a.b.B.B.-.V V V V V C u.a.a.S 0 0 6 > > > + o o o o o o + o O > > > 5 0 0 0 0 0 B a.a.a.A V V Q a.a.k.B.B.y.n n n n n n n n n n n n n n n n n ",
"n n n n n n n n n n n n n n n n n ( d.a.b.B.B.-.V V V V V C u.a.a.S 0 0 6 > > > # > > + o o @ > > > > , , 5 0 0 0 8 8 B a.a.p.A V V Q a.a.k.B.B.y.n n n n n n n n n n n n n n n n n ",
"n n n n n n n n n n n n n n n n h ( a.a.m.B.B.;.V V V V V C u.a.a.P w w 8 < > > > > > @ o o @ > > > , > 1 5 0 0 0 0 0 B a.a.a.A V V Q a.d.k.B.B.y.n n n n n n n n n n n n n n n n n ",
"n n n n n n n n n n n n n n n n k ' a.a.m.B.B.-.V V V V V C u.d.a.a.p.p./ 8 7 6 < > > @ o o @ > > > 5 5 5 w 0 0 0 0 0 B a.a.a.A C B Q a.a.k.B.B.y.n n n n n n n n n n n n n n n n n ",
"n n n n n n n n n n n n n n n n n ( a.d.b.B.B.-.V V V V V C i.d.a.a.a.a./ w 0 7 < > > @ o + @ , , 1 M 5 0 5 0 0 0 0 0 B a.a.p.A B B Q a.a.k.B.B.y.n n n n n n n n n n n n n n n n n ",
"n n n n n n n n n n n n n n n n n ( a.a.b.B.B.-.V V V V V V w w r W a.a.p./ u./ 1 > > > # # t / / ! 5 M 0 0 0 0 0 0 0 B a.a.a.A B B Q a.a.k.B.B.y.n n n n n n n n n n n n n n n n n ",
"n n n n n n n n n n n n n n n n n ( a.a.b.M.B.-.V V V V V V 0 8 0 S a.a.a.a.a.u.4 > > > > > V a.a.! M 5 0 0 0 0 0 0 0 B a.a.p.A V V Q a.d.k.B.B.N.n n n n n n n n n n n n n n n n n ",
"n n n n n n n n n n n n n n n n n x x j r.B.B.-.V V V V V V V V B M M M C a.a.a.p.i.i.) ) ) H 3 2 2 M 5 0 0 0 0 L u.u.! A A A B B B Q a.a.k.B.B.y.n n n n n n n n n n n n n n n n n ",
"n n n n n n n n n n n n n n n n n n n n r.B.B.-.V V V V V V V V B M 0 0 C a.a.a.a.a.a.a.a.a.H > , < 5 M 0 0 5 M P a.a.u.B B B B B B / a.a.k.B.B.y.n n n n n n n n n n n n n n n n n ",
"n n n n n n n n n n n n n n n n n n n n ,.f.f.z.v.v.:.Z V V V V B w w 5 0 M M C p.a.d.V 4 4 2 > > 2 5 5 w 5 M 5 L a.a.! B B C ! u./ l.M.M.q.b x c n n n n n n n n n n n n n n n n n ",
"n n n n n n n n n n n n n n n n n n n n >.a.a.z.B.B.c.Z V V V V B w 5 w 5 w 0 M ) d.a.N > > > > > , 0 M 5 w 0 0 L a.a.u.B B C u.a.a.b.B.B.w.n n n n n n n n n n n n n n n n n n n n ",
"n n n n n n n n n n n n n n n n n n n n ,.a.a.z.B.B.v.Z V V V V B w 0 0 M 5 0 0 5 e 4 1 > > > > > , 5 0 0 I ! ! I H H A C B C u.a.a.b.B.B.w.n n n n n n n n n n n n n n n n n n n n ",
"n n n n n n n n n n n n n n n n n n n n ,.a.a.z.B.B.v.Z V V V V B r 0 0 5 q 5 r , , , > > > , < > 1 5 0 w ! a.a.I V V V V V C u.d.a.m.B.B.w.n n n n n n n n n n n n n n n n n n n n ",
"n n n n n n n n n n n n n n n n n n n n ,.a.a.z.B.B.c.Z V V V V B I ! u.U q M 5 5 5 5 1 > > 1 5 5 5 M 5 5 B B B C V V V V V C u.a.d.b.B.B.w.n n n n n n n n n n n n n n n n n n n n ",
"n n n n n n n n n n n n n n n n n n n n ,.d.a.z.B.B.v.Z V V V V B U a.a.! 0 0 0 5 0 0 1 > > 1 5 w 5 0 0 5 5 M 5 r V V V V V C u.a.a.b.B.B.e.n n n n n n n n n n n n n n n n n n n n ",
"n n n n n n n n n n n n n n n n n n n n ,.a.a.z.B.M.v.Z V V V V B A J J I Q W U M w 0 2 > > M W W L M 0 M M M M M V V V V V C u.a.a.b.B.B.w.n n n n n n n n n n n n n n n n n n n n ",
"n n n n n n n n n n n n n n n n n n n n ,.a.a.z.B.B.x.Z V V V V B V V V A a.a.p.M 5 0 1 > > M a.a.u.M 5 5 B V V V V V C V V C u.a.a.m.B.B.w.n n n n n n n n n n n n n n n n n n n n ",
"n n n n n n n n n n n n n n n n n n n n l o.o.=.k.k.k.1.:.:.F V B V V V B A A A W W W P L L J A A C w w 5 B V B V V V C ! U ! k.m.m.9.+.+.O.n n n n n n n n n n n n n n n n n n n n ",
"n n n n n n n n n n n n n n n n n n n n n n m @.a.a.g.M.B.M.G N V V V V M 0 0 M u.a.a.a.a.a.W 0 0 0 0 0 M M B V V V V H a.a.a.b.B.B.$.n n n n n n n n n n n n n n n n n n n n n n n ",
"n n n n n n n n n n n n n n n n n n n n n n m @.a.a.k.M.B.B.G N V V V V M 0 5 0 C A A A A A B 0 0 0 5 0 5 M B V V V V F a.a.d.M.B.B.+.n n n n n n n n n n n n n n n n n n n n n n n ",
"n n n n n n n n n n n n n n n n n n n n n n n X.a.a.d.M.B.M.H V B V B B M 0 w 0 0 0 0 0 0 0 0 0 5 0 M 5 5 M V V V V V A a.a.d.M.B.B.+.n n n n n n n n n n n n n n n n n n n n n n n ",
"n n n n n n n n n n n n n n n n n n n n n n n l } 8.=.z.k.z.` &.&.L B B B r r r 0 0 0 0 0 0 0 0 w 0 M B M V V V H I I ~ z.b.b.0.$.$.b n n n n n n n n n n n n n n n n n n n n n n n ",
"n n n n n n n n n n n n n n n n n n n n n n n n n n v s.d.d.m.B.B.^ V V V V V N 0 0 0 0 0 0 0 8 0 q V V V V V V I a.a.k.M.B.B.b n n n n n n n n n n n n n n n n n n n n n n n n n n ",
"n n n n n n n n n n n n n n n n n n n n n n n n n n v s.d.d.m.B.B.^ V V V V V V r r r r w w M w w w V V V V V V I a.a.g.B.B.N.b n n n n n n n n n n n n n n n n n n n n n n n n n n ",
"n n n n n n n n n n n n n n n n n n n n n n n n n n z s.d.d.M.M.B.^ V V V V V V V V B V V V V V V V V V V V V V I d.a.k.B.B.N.b n n n n n n n n n n n n n n n n n n n n n n n n n n ",
"n n n n n n n n n n n n n n n n n n n n n n n n n n k [ } 5.b.z.z.1.^ &.T V V V B V V V V V V V V C P P I P P P _ z.z.v.9.#.#.m n n n n n n n n n n n n n n n n n n n n n n n n n n ",
"n n n n n n n n n n n n n n n n n n n n n n n n n n n n k k >.d.a.z.B.B.x.B V V V B V V V V V V V A p.a.a.a.a.a.b.B.B.r.m n n n n n n n n n n n n g g g n n n n n n n n n n n n n n ",
"n n n n n n n n n n n n n n n n n n n n n n n n n n n n n k [ 5.5.4.b.z.g.L L L L L L L L L L P L P a.d.a.k.k.k.=.8.9.%.m n n n n n n n n n n n n i u u n n n n n n n n n n n n n n ",
"n n n n n n n n n n n n n n n n n n n n n n n n n n n n n n k n n { a.a.a.a.a.a.a.d.a.d.d.d.a.d.a.a.d.a.d.M.B.B.l n n n n n n n n n n n n n n n n i u u n n n n n h n n n n n n n n ",
"n n n n n n n n n n n n n n n n n n n n n n n f f h n n n n n n n  .5.5.2.z.z.z.z.z.l.l.l.l.l.l.l.l.z.l.l.e.9.w.l n n n n n n n n n n n g g n n n i u u n n n h h g n n n n n n n n ",
"n n n n n n n n n n n n n n n n n n n n n n i u i h n n n n n n n n n n O.B.B.B.B.B.B.B.B.B.B.B.B.B.B.B.B.O.m n n n n n n n n n n n n a u u g n n a u u n n h u u d n n n n n n n n ",
"n n n n n n n n n n n n n n n n n n n n n n a u u n n n n n n n n n n n b w.w.w.w.w.w.w.w.w.w.w.r.w.w.w.r.m n n n n n n n n n n n n n s u u g n n u u u n n h u u a n n n n n n n n ",
"n n n n n n n n n n n n n n n n n d d n n n a u u n n n d d f n n n n n n n n n n n n n n n n n n n m n n n n n n n n n n n n n n n n g a a d g d a a a a g g a a d n n n n n n n n ",
"n n n n n n n n n n n n n n n n d u u d n n a u u f n n i i a n n n n n n n n n n n n n n n n n n n n n n n n n n n n n n n n n n n n n n n a u u n n n u u a n n n n n n n n n n n ",
"n n n n n n n n n n n n n n n n n u u d n n a u u n n n u u a n n n n n n n n n n n n n n n n n n n n n n n n n n n n n n n n n n n n n n n a u u n n n u u a h n n n n n n n n n n ",
"n n n n n n n n n n n n n n n n f d d f d d a d a d a d d d d n n n n n n n n n n n n n n n n n n n n n n n n n n n n n n n n n n n n n n n g a d a d d d d d n n n n n n n n n n n ",
"n n n n n n n n n n n n n n n n n n n a u u f n n a u i n n n n n n n n n n n n n n n n n n n n n n n n n n n n n n n n n n n n n n n n n n n n n u u u n n n n n n n n n n n n n n ",
"n n n n n n n n n n n n n n n n n n n d u u n n n u u a n n n n n n n n n n n n n n n n n n n n n n n n n n n n n n n n n n n n n n n n n n n n n a u u n n n n n n n n n n n n n n ",
"n n n n n n n n n n n n n n n n n n n f d f d a s d d h n n n n n n n n n n n n n n n n n n n n n n n n n n n n n n n n n n n n n n n n n n n n n h g h n n n n n n n n n n n n n n ",
"n n n n n n n n n n n n n n n n n n n n n n a i u n n n n n n n n n n n n n n n n n n n n n n n n n n n n n n n n n n n n n n n n n n n n n n n n n m n n n n n n n n n n n n n n n ",
"n n n n n n n n n n n n n n n n n n n n n n a u u n n n n n n n n n n n n n n n n n n n n n n n n n n n n n n n n n n n n n n n n n n n n n n n n n n n n n n n n n n n n n n n n n ",
"n n n n n n n n n n n n n n n n n n n n n n f n g n n n n n n n n n n n n n p y y y y y y y y y y y y p n n n n n n n n n n n n n n n n n n n n n n n n n n n n n n n n n n n n n n ",
"n n n n n n n n n n n n n n n n n n n n n n n n n n n n n n n n n n n n n n & .   . .   .   .   . .   - n n n n n n n n n n n n n n n n n n n n n n n n n n n n n n n n n n n n n n ",
"n n n n n n n n n n n n n n n n n n n n n n n n n n n n g f n f d g g g g s &                         * s g g s s g s s s n n n n n n n n n n n n n n n n n n n n n n n n n n n n n ",
"n n n n n n n n n n n n n n n n n n n n n n n n n n n n -                                                                 : n n n n n n n n n n n n n n n n n n n n n n n n n n n n ",
"n n n n n n n n n n n n n n n n n n n n n n n n n n n n ; X X X X X X X X X                           . X X X X X X X X X : n n n n n n n n n n n n n n n n n n n n n n n n n n n n ",
"n n n n n n n n n n n n n n n n n n n n n n n n n n n n n s s s s s s s s s $                         * s s s s s s s s s g n n n n n n n n n n n n n n n n n n n n n n n n n n n n ",
"n n n n n n n n n n n n n n n n n n n n n n n n n n n n n n n n n n n n n n %                         = n n m n n n n n n n n n m n n n n m n n n n n n n n n n n n n m n n n m n n "
};
