/* XPM */
static char *PicsArt_01_28_11_06_481674943870[] = {
/* columns rows colors chars-per-pixel */
"90 90 191 2 ",
"   c None",
".  c black",
"X  c #1F1E1E",
"o  c #201E1F",
"O  c #211F20",
"+  c #242322",
"@  c #2D2C29",
"#  c #33312E",
"$  c #333432",
"%  c #3B3938",
"&  c #403E38",
"*  c #3E423D",
"=  c #46433D",
"-  c #1A3743",
";  c #333E45",
":  c #1E4759",
">  c #3A454A",
",  c #4B4A44",
"<  c #535348",
"1  c #5C5B54",
"2  c #576544",
"3  c #646556",
"4  c #6A6B5B",
"5  c #4F6472",
"6  c #787966",
"7  c #7E7B7B",
"8  c #964642",
"9  c #817F7E",
"0  c #9B7A66",
"q  c #C55153",
"w  c #CC7C74",
"e  c #D7706E",
"r  c #E16C6C",
"t  c #E77272",
"y  c #658A4D",
"u  c #79874C",
"i  c #669A53",
"p  c #719C54",
"a  c #6EAB5A",
"s  c #6DA155",
"d  c #79A357",
"f  c #73B65F",
"g  c #78B85E",
"h  c #79BA61",
"j  c #808C4F",
"k  c #808B50",
"l  c #8D9E56",
"z  c #879358",
"x  c #86A85A",
"c  c #93A55A",
"v  c #95AB5C",
"b  c #9AAE5D",
"n  c #9DB25F",
"m  c #93B35F",
"M  c #87B65F",
"N  c #828469",
"B  c #8C9066",
"V  c #8D9169",
"C  c #8E9178",
"Z  c #969A7B",
"A  c #959977",
"S  c #B48C79",
"D  c #99A765",
"F  c #84B864",
"G  c #98B963",
"H  c #9CA17B",
"J  c #A2B761",
"K  c #A4BB63",
"L  c #A5B969",
"P  c #AEBE7B",
"I  c #A2AA76",
"U  c #C6877A",
"Y  c #8CC265",
"T  c #9AC566",
"R  c #AAC266",
"E  c #ADC669",
"W  c #A3CB6A",
"Q  c #ADCA6A",
"!  c #A4C467",
"~  c #B2CC6C",
"^  c #B5D26E",
"/  c #B9D56F",
"(  c #B1C578",
")  c #BAD670",
"_  c #BED87A",
"`  c #AECA70",
"'  c #14688A",
"]  c #116C90",
"[  c #10759E",
"{  c #367088",
"}  c #0D79A5",
"|  c #137BA4",
" . c #0981B2",
".. c #228DBA",
"X. c #4D819B",
"o. c #658290",
"O. c #5292A4",
"+. c #7E99AB",
"@. c #79A6AE",
"#. c #019BD9",
"$. c #1A9DD2",
"%. c #018BC2",
"&. c #1AA2D9",
"*. c #0CA1DE",
"=. c #0AA5E4",
"-. c #35B1E7",
";. c #5DAED1",
":. c #7AB2CC",
">. c #4AB4E3",
",. c #59BBE8",
"<. c #8B8989",
"1. c #989C82",
"2. c #989696",
"3. c #9FA383",
"4. c #8AAB8E",
"5. c #A6AB8C",
"6. c #A3A887",
"7. c #ACB581",
"8. c #AEB68A",
"9. c #B3BE83",
"0. c #B2BB89",
"q. c #A8AB95",
"w. c #AEB393",
"e. c #B1B596",
"r. c #B3BA93",
"t. c #B5BA9A",
"y. c #B9BE9D",
"u. c #B2B798",
"i. c #9CA5AD",
"p. c #AFADAD",
"a. c #BCBCAD",
"s. c #A9ADB0",
"d. c #BEBCBB",
"f. c #C59A86",
"g. c #C2BFBF",
"h. c #B5C185",
"j. c #B8C38A",
"k. c #B9C392",
"l. c #BBC29E",
"z. c #BBC795",
"x. c #BDC4A2",
"c. c #C4DB88",
"v. c #C1CB9C",
"b. c #C5D199",
"n. c #CEE09E",
"m. c #C0C7A4",
"M. c #C2CAA5",
"N. c #C6CDAA",
"B. c #CACEAA",
"V. c #CDC2A3",
"C. c #CBD5A5",
"Z. c #CAD2AD",
"A. c #CED8A9",
"S. c #CFDFA0",
"D. c #D2DDAD",
"F. c #CED7B1",
"G. c #D3DBB5",
"H. c #D5DEB9",
"J. c #D1D5BD",
"K. c #C8C8BE",
"L. c #D9E4B7",
"P. c #D6E0B9",
"I. c #DAE4BC",
"U. c #DEE9BF",
"Y. c #D7E3B3",
"T. c #D2E2A6",
"R. c #E0ECBF",
"E. c #8EBFD2",
"W. c #91BBCE",
"Q. c #A7BDC7",
"!. c #98C2D7",
"~. c #BBCCD7",
"^. c #B6CAD5",
"/. c #CDCBCB",
"(. c #C8C6C7",
"). c #D2CFCF",
"_. c #D3D5C5",
"`. c #D8D6D6",
"'. c #DDDCDB",
"]. c #D8D8D4",
"[. c #CBD3CF",
"{. c #DFE9C1",
"}. c #E3EEC4",
"|. c #E5F0C6",
" X c #DDE1E4",
".X c #E5E4E2",
"XX c #EDECEC",
"oX c #E8E8E9",
"OX c #F0F0EF",
"+X c #F5F4F4",
"@X c #FEFEFE",
/* pixels */
"                                                                                                                                                                                    ",
"                                                                                                                                                                                    ",
"                                                                                                                                                                                    ",
"                                                                                                                                                                                    ",
"                                                                                                                                                                                    ",
"                                                                                                                                                                                    ",
"                                                                                                                                                                                    ",
"                                                                                                                                                                                    ",
"                                                                                                                                                                                    ",
"                                                                                                                                                                                    ",
"                                                                                                                                                                                    ",
"                                                                                            u.t.y.@.|                                                                               ",
"                                                                                      t.x.M.x.u.8.4.| } [ ]                                                                         ",
"                                                                                  w.x.t.                                                                                            ",
"                                                                                e.t.                                                                                                ",
"                                                                              q.w.                                                                                                  ",
"                                                                              q.                                                                                                    ",
"                                                                            5.                                                                                                      ",
"                                                                            3.                                                                                                      ",
"                                                                          C 5.x.N.N.N.x.u.          t.x.x.l.t.                                                                      ",
"                                                                        M.Z.H.}.}.}.}.}.{.G.w.t.M.N.x.x.y.y.x.x.M.x.O.                                                              ",
"                                                                    , 6 I.}.}.}.}.}.}.}.{.Z.Z.Z.m.                  O. .}                                                           ",
"                                                                  s.o.$ l.|.}.}.}.}.}.}.}.I.I.}.}.P.w.                    [ ]                                                       ",
"                                                                s.@.Q., q.|.}.}.}.}.}.}.}.}.}.|.}.}.I.t.                      '                                                     ",
"                                                                W.;.~.% t.|.}.}.}.}.}.}.}.}.|.|.}.}.}.{.t.                          j                                               ",
"                                                      M.w.a.  (.;.$.{ ; F.}.}.}.}.}.}.}.|.|.|..X|.}.}.}.{.x.                      2 u                                               ",
"                                                    6.G.{.{.a.[.>.%.- 6 }.}.}.}.{.|.|.{.x.3.N u C x.{.|.}.{.M.                  j K u                                               ",
"                                                    m.{.{.{.q.i.X.- , N.}.}.}.}.|.|.N.4 $ $ > : ; # 3 N.}.}.|.P.Z.l.8.D c n J n R ~ 4                                               ",
"                                                      Z.}.F.< % & 3 m.}.}.}.}.}.|.a.= - { /.[.&.:.2.& < F.|.}.}.|.|.L._ / E J ~ / n                                                 ",
"                                                        {.F.M.N.F.R.}.|.}.}.}.}.H.< % ..!.@XE.&.E.+X2.O Z |.}.}.}.|.R.T.( L ^ / K n                                                 ",
"                                                        F.F.I.}.}.H.0 y.}.|.}.}.x.$ X.#.:.W.$.>.~.@Xp.O 6 |.}.|.}.}.|.U.T.c._ K K v                                                 ",
"                                                        x.N.I.}.}.G.8 8 S G.}.}.m.$ O.=.#.#.-.W.XX@X<.O C |.}.}.}.}.|.|.|.b.L R K                                                   ",
"                                                          N.I.}.}.G.w r q S }.}.I., 5 ,.-.,.E. X@X.X, @ y.}.}.}.}.}.}.}.G.P E ^ l                                                   ",
"                                                          x.G.}.|.L.e t r f.|.}.}.1.$ +.!.~.oX@X+X9 O 3 R.}.}.}.}.}.H.N.v.c.c.J z                                                   ",
"                                                          y.Z.|.}.I.U t e V.|.}.}.L.1 & g.@X@XXX<.+ % m.|.}.}.}.}.}.H.U.}.T.L c                                                     ",
"                                                          w.M.}.}.}.f.r U I.}.}.}.|.N., % 9 2.1 O $ q.}.}.}.}.}.}.}.}.}.L.P K                                                       ",
"                                                            M.G.}.}.V.U B.}.}.}.}.}.}.B.3 + o O < t.}.}.}.}.}.}.}.}.}.G.z.( l                                                       ",
"                                                            N.l.L.}.}.U.}.}.}.}.}.}.}.}.I.w.C w.H.}.}.}.}.}.}.}.}.L.N.F.b.c                                                         ",
"                                                            y.Z.r.L.}.}.}.}.}.}.}.}.}.}.}.|.|.|.}.}.}.}.}.}.}.}.}.H.R.N.                                                            ",
"                                                              G.N.0.D.}.}.}.}.}.}.}.}.}.}.}.}.}.}.}.}.}.}.}.}.}.}.I.t.                                                              ",
"                                                              y.}.m.7.b.L.}.}.}.}.}.}.}.}.}.}.}.}.}.}.}.}.}.}.}.R.y.                                                                ",
"                                                                A.}.m.7.j.C.L.}.}.}.}.}.}.}.|.}.}.}.}.}.}.}.}.U.x.                                                                  ",
"                                                                5.I.}.m.P 0.j.v.D.R.}.}.}.}.}.|.}.}.}.}.}.I.N.                                                                      ",
"                                                                  w.R.R.0.h.h.9.9.9.b.C.D.L.R.R.{.{.L.G.m.                                                                          ",
"                                                                    Z.|.z.9.0.I   N V A A H H 6.H Z C                                                                               ",
"                                                                    B.|.A.h.P Z v.Z.G.H.H.H.G.G.G.F.F.F.Z.M.m.x.y.u.                    1.                                          ",
"                                                                    m.|.{.G.G.U.}.}.}.|.|.|.|.|.}.}.}.}.}.}.}.}.}.{.{.U.I.I.P.H.G.N.Z.G.l.                                          ",
"                                                                  j z.|.}.}.{.D.Z.D.L.R.R.|.}.R.}.}.}.}.}.}.}.}.}.}.}.}.}.}.}.}.|.L.Z.u.                                            ",
"                                                                  n z.}.|.{.k.L L D t.l.C.P.}.|.}.}.}.}.}.}.}.}.}.}.|.}.}.R.Y.A.A.C.v.l.6.                                          ",
"                                                                  E z.}.{.k.Q / ) ~ _.OX'._.J.H.I.H.{.}.}.}.}.}.{.L.G.Z.k.5.A B B B B H Z                                           ",
"                                                                  ~ h.P.j.Q / ) ) ) k.+X@X@X+X+X.XK.q.5.r.r.r.w.5.                                                                  ",
"                                                                  ^ ( P ^ ) ) ) ) ) K a.@X@X@X@X@X@X+X).                                                                            ",
"                                                                  ~ ) / ) / ) ) ) ) ~ B `.@X@X@X@X@X@X@XXX(.                                                                        ",
"                                                                  E ) ) / ) ) ) ) ) / n   '.@X@X@X@X@X@X@X@X'.                                                                      ",
"                                                                q.( / / ) ) ) / / / / m     `.@X@X@X@X@X@X@X@XoX                                                                    ",
"                                                                (.z./ ) ) / ) / / / ^ d       ).+X@X@X@X@X@X@X@XOX                                                                  ",
"                                                                '._.G ^ / ) ) ) ) ^ Y y         d.XX@X@X@X@X@X@X@XOX                                                                ",
"                                                                 X+X4.h Y T W W T h a               ).+X@X@X@X@X@X@XXX                                                              ",
"                                                                '.@X].h g a g f h f i                   `.OX@X@X@X@X@X'.                                                            ",
"                                                                '.@X+X6.T M s a h h i                       K.`..X.XoX.X                                                            ",
"                                                                /.@X'.  n / W u K ^ G                                                                                               ",
"                                                                  /.      E ) G k ~ ^ c                                                                                             ",
"                                                                          c ^ ^   v / ~                                                                                             ",
"                                                                            K / E k R ) !                                                                                           ",
"                                                                              ~ ) R J ) / ! d                                                                                       ",
"                                                                              R ) / J / ) ) ^ x                                                                                     ",
"                                                                              n / / J ~ ) / / / M                                                                                   ",
"                                                                              l ^ / E E ) ) / ) ^ l                                                                                 ",
"                                                                                ~ ) ^ J / ) ) / ) !                                                                                 ",
"                                                                                ~ ) / K ~ ) ) ) ) / x                                                                               ",
"                                                                                R ) ) ~ K / / / ) ) G                                                                               ",
"                                                                                J ) ) ) G ~ / / ) ) Q                                                                               ",
"                                                                                v / ) ) G v ) ) ) ) ^                                                                               ",
"                                                                                  ~ ) ) T y E / / ) Q                                                                               ",
"                                                                                  J / ) F     ~ ) / Q                                                                               ",
"                                                                                    R Q p     c E ^ G                                                                               ",
"                                                                                                  l                                                                                 ",
"                                                                                                                                                                                    ",
"                                                                                                                                                                                    ",
"                                                                                                                                                                                    ",
"                                                                                                                                                                                    ",
"                                                                                                                                                                                    ",
"                                                                                                                                                                                    ",
"                                                                                                                                                                                    ",
"                                                                                        . . . .                                                                                     ",
"                                                                                    . . . . . . . . .                                                                               ",
"                                                                                  . . . . . . . . . . .                                                                             ",
"                                                                                  . . . . . . . . . .                                                                               ",
"                                                                                      . . . . . .                                                                                   ",
"                                                                                                                                                                                    "
};
