/* XPM */
static char *PicsArt_01_28_11_07_061674943850[] = {
/* columns rows colors chars-per-pixel */
"90 90 191 2 ",
"   c None",
".  c black",
"X  c #1F1E1E",
"o  c #201E1F",
"O  c #211F20",
"+  c #242322",
"@  c #2D2C29",
"#  c #33312E",
"$  c #333432",
"%  c #3B3938",
"&  c #403E38",
"*  c #3E423D",
"=  c #46433D",
"-  c #1A3743",
";  c #333E45",
":  c #1E4759",
">  c #3A454A",
",  c #4B4A44",
"<  c #535348",
"1  c #5C5B54",
"2  c #576544",
"3  c #646556",
"4  c #6A6B5B",
"5  c #4F6472",
"6  c #787966",
"7  c #7E7B7B",
"8  c #964642",
"9  c #817F7E",
"0  c #9B7A66",
"q  c #C55153",
"w  c #CC7C74",
"e  c #D7706E",
"r  c #E16C6C",
"t  c #E77272",
"y  c #658A4D",
"u  c #79874C",
"i  c #669A53",
"p  c #719C54",
"a  c #6EAB5A",
"s  c #6DA155",
"d  c #79A357",
"f  c #73B65F",
"g  c #78B85E",
"h  c #79BA61",
"j  c #808C4F",
"k  c #808B50",
"l  c #8D9E56",
"z  c #879358",
"x  c #86A85A",
"c  c #93A55A",
"v  c #95AB5C",
"b  c #9AAE5D",
"n  c #9DB25F",
"m  c #93B35F",
"M  c #87B65F",
"N  c #828469",
"B  c #8C9066",
"V  c #8D9169",
"C  c #8E9178",
"Z  c #969A7B",
"A  c #959977",
"S  c #B48C79",
"D  c #99A765",
"F  c #84B864",
"G  c #98B963",
"H  c #9CA17B",
"J  c #A2B761",
"K  c #A4BB63",
"L  c #A5B969",
"P  c #AEBE7B",
"I  c #A2AA76",
"U  c #C6877A",
"Y  c #8CC265",
"T  c #9AC566",
"R  c #AAC266",
"E  c #ADC669",
"W  c #A3CB6A",
"Q  c #ADCA6A",
"!  c #A4C467",
"~  c #B2CC6C",
"^  c #B5D26E",
"/  c #B9D56F",
"(  c #B1C578",
")  c #BAD670",
"_  c #BED87A",
"`  c #AECA70",
"'  c #14688A",
"]  c #116C90",
"[  c #10759E",
"{  c #367088",
"}  c #0D79A5",
"|  c #137BA4",
" . c #0981B2",
".. c #228DBA",
"X. c #4D819B",
"o. c #658290",
"O. c #5292A4",
"+. c #7E99AB",
"@. c #79A6AE",
"#. c #019BD9",
"$. c #1A9DD2",
"%. c #018BC2",
"&. c #1AA2D9",
"*. c #0CA1DE",
"=. c #0AA5E4",
"-. c #35B1E7",
";. c #5DAED1",
":. c #7AB2CC",
">. c #4AB4E3",
",. c #59BBE8",
"<. c #8B8989",
"1. c #989C82",
"2. c #989696",
"3. c #9FA383",
"4. c #8AAB8E",
"5. c #A6AB8C",
"6. c #A3A887",
"7. c #ACB581",
"8. c #AEB68A",
"9. c #B3BE83",
"0. c #B2BB89",
"q. c #A8AB95",
"w. c #AEB393",
"e. c #B1B596",
"r. c #B3BA93",
"t. c #B5BA9A",
"y. c #B9BE9D",
"u. c #B2B798",
"i. c #9CA5AD",
"p. c #AFADAD",
"a. c #BCBCAD",
"s. c #A9ADB0",
"d. c #BEBCBB",
"f. c #C59A86",
"g. c #C2BFBF",
"h. c #B5C185",
"j. c #B8C38A",
"k. c #B9C392",
"l. c #BBC29E",
"z. c #BBC795",
"x. c #BDC4A2",
"c. c #C4DB88",
"v. c #C1CB9C",
"b. c #C5D199",
"n. c #CEE09E",
"m. c #C0C7A4",
"M. c #C2CAA5",
"N. c #C6CDAA",
"B. c #CACEAA",
"V. c #CDC2A3",
"C. c #CBD5A5",
"Z. c #CAD2AD",
"A. c #CED8A9",
"S. c #CFDFA0",
"D. c #D2DDAD",
"F. c #CED7B1",
"G. c #D3DBB5",
"H. c #D5DEB9",
"J. c #D1D5BD",
"K. c #C8C8BE",
"L. c #D9E4B7",
"P. c #D6E0B9",
"I. c #DAE4BC",
"U. c #DEE9BF",
"Y. c #D7E3B3",
"T. c #D2E2A6",
"R. c #E0ECBF",
"E. c #8EBFD2",
"W. c #91BBCE",
"Q. c #A7BDC7",
"!. c #98C2D7",
"~. c #BBCCD7",
"^. c #B6CAD5",
"/. c #CDCBCB",
"(. c #C8C6C7",
"). c #D2CFCF",
"_. c #D3D5C5",
"`. c #D8D6D6",
"'. c #DDDCDB",
"]. c #D8D8D4",
"[. c #CBD3CF",
"{. c #DFE9C1",
"}. c #E3EEC4",
"|. c #E5F0C6",
" X c #DDE1E4",
".X c #E5E4E2",
"XX c #EDECEC",
"oX c #E8E8E9",
"OX c #F0F0EF",
"+X c #F5F4F4",
"@X c #FEFEFE",
/* pixels */
"                                                                                                                                                                                    ",
"                                                                                                                                                                                    ",
"                                                                                                                                                                                    ",
"                                                                                                                                                                                    ",
"                                                                                                                                                                                    ",
"                                                                                                                                                                                    ",
"                                                                                                                                                                                    ",
"                                                                                                                                                                                    ",
"                                                                                                                                                                                    ",
"                                                                                                                                                                                    ",
"                                                                                                                                                                                    ",
"                                                                              | 4.y.y.u.                                                                                            ",
"                                                                        ] [ | | +.w.t.l.x.m.t.                                                                                      ",
"                                                                                            t.x.w.                                                                                  ",
"                                                                                                t.e.                                                                                ",
"                                                                                                  w.q.                                                                              ",
"                                                                                                    q.                                                                              ",
"                                                                                                      5.                                                                            ",
"                                                                                                      3.                                                                            ",
"                                                                      t.l.x.x.t.          e.x.N.N.N.x.5.Z                                                                           ",
"                                                              O.x.m.x.x.y.l.x.x.N.m.t.e.G.}.}.}.}.}.}.H.Z.M.                                                                        ",
"                                                           . .O.                  m.Z.Z.B.I.}.}.}.}.|.}.}.{.6 ,                                                                     ",
"                                                      ] [                     w.H.}.}.I.U.}.}.}.}.}.}.}.}.t.$ o.s.                                                                  ",
"                                                    '                       t.U.}.}.}.}.}.}.}.}.}.}.}.}.|.5., Q.:.s.                                                                ",
"                                              j                           t.{.}.}.}.}.}.}.}.}.}.}.}.}.}.}.r.% ^.;.W.                                                                ",
"                                              u 2                       x.{.}.}.|.|.|.|.|.|.}.}.}.}.}.}.}.F.* { $.;.(.  x.t.M.                                                      ",
"                                              4 K j                   M.{.}.}.U.a.<.u N 1.m.R.}.|.}.}.}.}.}.6 -  .>.[.a.{.{.G.6.                                                    ",
"                                              u E E n K n v D 7.l.N.I.}.}.}.N.3 ; ; : > % # 4 N.}.}.}.}.}.}.B.= - X.i.i.I.}.{.m.                                                    ",
"                                                n ^ E K E ^ c.Y.}.|.}.}.|.F.< % 2.W.$.~.).{ - & x.}.}.}.}.}.}.m.4 % % < F.}.N.                                                      ",
"                                                n K / ^ K ( D.R.}.}.}.}.|.1.X 2.+X!.&.E.@X!...; < I.}.}.}.}.}.}.{.F.M.M.F.U.                                                        ",
"                                                c R K _ c.n.R.}.}.}.}.}.}.6 X p.@X~.>.$.W.:.#.X.# m.}.}.}.}.y.0 H.}.|.I.F.F.                                                        ",
"                                                  K R K T.}.}.}.}.}.}.}.|.C X <.@XXXW.-.#.#.=.O.$ m.|.}.G.S 8 8 G.}.}.I.B.x.                                                        ",
"                                                  c ~ E P D.}.}.}.}.}.}.|.a.@ , .X@X X!.,.-.,.5 < P.}.|.S q r w G.}.}.I.N.                                                          ",
"                                                  j J c.c.M.N.P.}.}.}.}.}.{.3 X 7 +X@XoX~.!.+.$ 1.}.{.|.f.r t U H.}.}.H.x.                                                          ",
"                                                    v L T.}.I.P.{.}.}.}.}.|.x.% + <.XX@X@Xd.% 1 I.|.|.|.V.e t U R.}.}.B.y.                                                          ",
"                                                      K P L.|.|.}.}.}.}.}.}.|.5.$ + 1 2.9 % , B.|.{.|.{.I.U r f.R.}.}.M.w.                                                          ",
"                                                      l ( z.G.{.}.}.}.}.}.}.}.}.t.< + X + 3 N.|.{.|.|.{.|.B.U V.|.|.G.m.                                                            ",
"                                                        c b.F.B.I.}.}.}.}.}.}.}.|.G.w.C w.I.}.}.{.|.|.{.}.}.I.}.}.I.l.N.                                                            ",
"                                                            N.U.I.{.}.}.}.}.}.}.}.}.|.|.|.}.}.}.|.|.|.|.}.}.}.}.L.0.F.t.                                                            ",
"                                                              t.I.}.}.}.}.}.}.}.}.}.}.}.}.}.}.}.|.{.{.|.}.}.}.D.0.N.G.                                                              ",
"                                                                y.U.}.}.}.}.}.}.}.}.}.}.}.}.}.}.}.}.}.}.}.I.b.7.v.}.t.                                                              ",
"                                                                  x.I.}.}.}.}.}.}.}.}.}.}.}.}.}.}.}.}.I.C.j.7.v.}.F.                                                                ",
"                                                                      B.U.}.}.}.}.}.}.}.}.|.}.R.R.D.b.j.h.P m.}.I.5.                                                                ",
"                                                                          x.G.I.U.U.U.U.L.Y.C.v.9.9.9.9.0.8.{.}.w.                                                                  ",
"                                                                              C Z H 6.H H H A V N   I 9.9.z.}.Z.                                                                    ",
"                                          1.                    t.t.l.x.M.B.F.F.G.G.G.G.G.I.G.G.Z.v.Z 7.h.A.|.N.                                                                    ",
"                                          l.G.Z.N.G.G.P.I.I.R.R.}.}.}.}.}.}.|.|.}.}.}.}.}.}.}.}.|.}.R.G.D.U.|.m.                                                                    ",
"                                            t.Z.I.|.|.}.}.}.}.}.}.}.}.}.}.}.}.}.}.}.}.}.}.|.}.L.D.C.F.}.|.}.|.v.j                                                                   ",
"                                          6.l.v.C.C.D.Y.R.}.}.|.}.}.}.}.}.}.}.}.}.}.}.U.L.C.l.u.D L L r.}.}.}.v.b                                                                   ",
"                                          A H B B B B A 6.z.Z.G.I.U.}.}.}.}.}.{.P.H.H.J._.'.OX_.~ ) ) ~ j.R.}.k.R                                                                   ",
"                                                                  5.w.r.e.u.5.q.K..X+X@X@X@X+Xk.^ ) ) ) ~ j.L.h.~                                                                   ",
"                                                                            ).+X@X@X@X@X@X@Xa.K ) ) ) ) / ~ P P ^                                                                   ",
"                                                                        (.XX@X@X@X@X@X@X@X).B ^ ) ) ) ) ) ) / / ~                                                                   ",
"                                                                      '.@X@X@X@X@X@X@X@X'.  n / ) ) ) ) ) ) ) ) ~                                                                   ",
"                                                                    oX@X@X@X@X@X@X@X@X`.    F / ) ) ) ) ) ) ^ / ( q.                                                                ",
"                                                                  XX@X@X@X@X@X@X@X+X).      d ^ ) ) ) ) ) ) ) ^ k./.                                                                ",
"                                                                OX@X@X@X@X@X@X@XXXd.        y Y ^ ) ) ) ) / ^ Y _.'.                                                                ",
"                                                              XX@X@X@X@X@X@X+X).              a h T W W T Y g 4.+X'.                                                                ",
"                                                            '.@X@X@X@X@X+X`.                  i g f g f a g F ].@X'.                                                                ",
"                                                            .XXX.X.X`.g.                      i h h a s M T 6.+X@X'.                                                                ",
"                                                                                              G ^ ! p ! / b   '.@X/.                                                                ",
"                                                                                            c ^ ^ u J / R       /.                                                                  ",
"                                                                                            ~ ^ v   ~ ^ c                                                                           ",
"                                                                                          ! / E j E / K                                                                             ",
"                                                                                      d E / ) J R / ~                                                                               ",
"                                                                                    x ^ ) / / K ^ / R                                                                               ",
"                                                                                  x / ) / / ~ K ) / b                                                                               ",
"                                                                                x ^ ) / / / R E ) / l                                                                               ",
"                                                                                ! ) / ) ) ^ K ^ ) ~                                                                                 ",
"                                                                              x / ) ) ) ) ~ K / ) ~                                                                                 ",
"                                                                              T ) ) ) / ) K ~ / ) R                                                                                 ",
"                                                                              W ) ) ) ) ~ G ^ / ) K                                                                                 ",
"                                                                              ~ ) ) ) ) v T ) ) / v                                                                                 ",
"                                                                              ~ ) / ) E y T ) ) ~                                                                                   ",
"                                                                              Q ) ) ~     M ) ) J                                                                                   ",
"                                                                              m ^ ~ l     p W R                                                                                     ",
"                                                                                l                                                                                                   ",
"                                                                                                                                                                                    ",
"                                                                                                                                                                                    ",
"                                                                                                                                                                                    ",
"                                                                                                                                                                                    ",
"                                                                                                                                                                                    ",
"                                                                                                                                                                                    ",
"                                                                                                                                                                                    ",
"                                                                                    . . . .                                                                                         ",
"                                                                              . . . . . . . . .                                                                                     ",
"                                                                            . . . . . . . . . . .                                                                                   ",
"                                                                              . . . . . . . . . .                                                                                   ",
"                                                                                  . . . . . .                                                                                       ",
"                                                                                                                                                                                    "
};
